<svg width="511" height="572" viewBox="0 0 511 572" fill="none" xmlns="http://www.w3.org/2000/svg">
<path d="M349.56 289.559C349.523 296.836 348.719 304.17 346.943 311.413C344.881 319.824 340.679 327.113 334.999 333.652C328.489 341.146 320.875 347.433 312.524 352.886C309.868 354.62 306.996 355.968 303.797 356.426C302.953 356.547 301.398 356.431 301.286 356.083C300.943 355.019 301.95 354.377 302.844 353.805C306.18 351.674 309.59 349.635 312.794 347.327C329.362 335.394 338.186 319.286 339.876 299.349C340.765 288.859 339.903 278.552 336.85 268.434C333.298 256.661 326.58 247.221 315.743 240.674C310.334 237.406 304.925 234.173 298.913 232.059C294.77 230.603 290.469 229.825 286.062 229.695C285.228 229.671 284.047 229.414 283.858 230.632C283.68 231.787 284.631 232.375 285.619 232.629C286.771 232.925 287.971 233.168 289.156 233.196C293.056 233.288 296.684 234.381 300.198 235.898C306.75 238.727 312.874 242.244 318.226 246.929C326.917 254.538 331.861 264.068 333.559 275.291C334.595 282.14 334.995 289.018 334.92 295.93C334.8 306.966 331.003 316.833 325.184 326.174C313.961 344.191 297.166 354.029 276.449 358.294C263.902 360.877 251.491 360.66 239.189 356.84C226.571 352.922 216.864 345.422 210.035 334.446C208.709 332.316 208.152 329.728 207.279 327.338C207.141 326.961 207.071 326.459 207.212 326.106C207.472 325.451 207.775 324.589 208.317 324.337C208.748 324.137 209.74 324.548 210.17 324.981C211.239 326.057 212.171 327.271 213.085 328.483C217.585 334.453 222.602 339.971 228.87 344.203C237.33 349.915 246.855 352.951 257.052 354.033C257.896 354.123 258.784 354.094 259.612 353.932C260.059 353.844 260.423 353.357 260.825 353.049C260.443 352.72 260.106 352.186 259.673 352.098C257.448 351.643 255.201 351.289 252.958 350.926C247.62 350.061 242.797 347.941 238.199 345.25C232.246 341.767 226.706 337.758 221.916 332.841C214.641 325.372 210.449 316.511 209.993 306.187C209.68 299.09 209.423 291.958 209.796 284.873C210.305 275.191 214.143 266.549 219.944 258.717C226.546 249.802 235.256 243.601 245.711 239.619C248.108 238.706 250.478 237.722 252.837 236.72C253.202 236.565 253.444 236.133 253.742 235.83C253.313 235.644 252.826 235.225 252.465 235.311C249.679 235.972 246.814 236.477 244.163 237.499C223.114 245.614 210.604 260.646 206.575 282.296C205.767 286.636 205.687 291.106 205.282 295.516C205.199 296.421 205.388 297.539 204.265 297.869C203.106 298.209 202.129 297.398 201.787 296.5C201.155 294.845 200.663 293.086 200.474 291.333C198.437 272.437 205.54 256.945 219.314 244.037C227.055 236.782 236.31 231.897 246.31 228.304C258.566 223.9 271.238 221.076 284.299 221.216C297.708 221.36 310.525 224.449 321.889 231.793C331.396 237.937 337.96 246.544 342.609 256.562C347.593 267.301 350.013 276.614 349.56 289.559ZM238.45 300.288L238.447 300.287C238.702 301.093 239.103 301.363 240.48 301.22C245.098 300.744 248.981 298.876 251.647 295.079C254.86 290.504 252.953 285.102 247.532 283.387C243.608 282.146 239.896 282.889 236.448 284.97C235.891 285.306 235.307 285.85 235.1 286.424C234.869 287.062 234.807 287.997 235.142 288.513C235.394 288.901 236.384 288.857 237.054 288.954C237.277 288.986 237.525 288.857 237.94 288.759C233.514 294.969 230.84 301.724 229.105 308.846C228.664 310.655 228.542 312.555 228.47 314.42C228.451 314.926 229.046 315.708 229.547 315.9C229.957 316.057 230.837 315.675 231.171 315.269C231.939 314.333 232.643 313.295 233.122 312.195C234.678 308.617 236.111 304.989 237.624 301.392C237.796 300.983 238.17 300.654 238.45 300.288ZM298.395 272.48C304.316 272.48 309.808 272.472 315.301 272.485C316.759 272.488 317.786 271.871 318.226 270.699C318.734 269.349 317.861 268.612 316.896 268.042C315.432 267.177 313.899 266.421 312.371 265.666C306.563 262.799 300.342 261.016 294.154 259.164C293.004 258.82 292.457 258.237 292.212 257.15C291.705 254.906 291.155 252.671 290.564 250.446C290.148 248.879 289.449 248.463 287.841 248.774C279.345 250.423 270.857 252.113 262.352 253.716C261.102 253.952 260.252 254.479 259.577 255.484C257.932 257.931 256.208 260.328 254.582 262.787C253.972 263.71 253.223 264.312 252.169 264.713C244.35 267.681 236.921 271.4 229.898 275.878C229.217 276.312 228.487 276.725 227.943 277.295C227.56 277.697 227.131 278.497 227.303 278.853C227.533 279.328 228.296 279.615 228.886 279.846C229.207 279.973 229.648 279.842 230.029 279.788C234.995 279.087 239.954 278.327 244.928 277.684C254.75 276.417 264.562 275.021 274.415 274.043C282.519 273.239 290.677 272.963 298.395 272.48ZM260.227 321.847C260.104 323.642 259.911 325.462 259.881 327.285C259.865 328.265 260.205 329.205 261.355 329.544C262.491 329.878 263.474 329.491 264.08 328.616C264.714 327.7 265.267 326.66 265.548 325.597C266.037 323.741 266.337 321.831 266.625 319.931C266.767 318.994 267.077 318.311 267.996 317.857C268.714 317.503 269.387 317.007 269.962 316.458C270.308 316.127 270.427 315.571 270.648 315.116C270.138 315.064 269.619 314.932 269.119 314.982C268.672 315.026 268.246 315.269 267.596 315.501C267.775 314.631 267.899 313.948 268.057 313.272C268.487 311.439 269.002 309.621 269.324 307.77C269.419 307.228 268.982 306.598 268.789 306.008C268.191 306.222 267.436 306.284 267.031 306.683C266.32 307.383 265.692 308.231 265.263 309.123C264.138 311.464 263.151 313.869 262.076 316.234C261.901 316.618 261.618 317.149 261.281 317.237C259.35 317.741 257.388 318.132 255.279 318.595C256.236 315.76 257.16 313.159 257.978 310.526C258.259 309.623 258.4 308.638 258.378 307.695C258.353 306.608 257.458 306.206 256.606 306.908C255.767 307.6 254.933 308.405 254.404 309.327C252.631 312.423 250.962 315.578 249.331 318.748C248.962 319.464 248.563 319.785 247.748 319.951C246.294 320.249 244.796 320.585 243.483 321.227C241.935 321.985 241.987 323.404 243.526 324.205C244.485 324.704 245.602 324.911 246.777 325.29C246.653 325.747 246.447 326.294 246.361 326.859C246.023 329.08 245.64 331.3 245.445 333.534C245.359 334.507 245.822 335.456 246.932 335.795C248.024 336.128 249.071 335.843 249.708 334.971C250.417 334.002 251.055 332.919 251.422 331.792C252.147 329.565 252.638 327.266 253.291 325.015C253.411 324.603 253.768 324.086 254.146 323.944C256.173 323.18 258.241 322.52 260.227 321.847V321.847ZM285.171 294.759C286.344 293.602 287.335 292.628 288.322 291.651C289.315 290.668 290.328 289.701 291.29 288.689C291.988 287.955 292.711 287.217 293.256 286.378C294.281 284.797 293.682 283.334 291.815 282.955C290.833 282.755 289.766 282.79 288.76 282.904C285.994 283.218 283.249 283.725 280.478 283.954C279.399 284.043 278.492 284.034 278.165 285.206C277.871 286.261 278.507 287.434 279.739 287.725C280.797 287.975 281.939 287.972 283.04 287.943C284.19 287.913 285.336 287.719 286.837 287.558C286.118 288.144 285.693 288.487 285.273 288.833C283.242 290.507 281.134 292.103 279.214 293.889C278.216 294.818 277.382 296.005 276.775 297.218C276.094 298.578 276.9 299.392 278.427 299.162C279.57 298.989 280.72 298.806 281.872 298.758C284.015 298.669 286.167 298.755 288.306 298.62C290.73 298.466 293.078 297.999 294.872 296.164C295.032 296.001 295.404 295.908 295.636 295.959C297.844 296.445 299.801 295.757 301.661 294.727C302.807 294.091 303.882 293.333 304.976 292.638C307.015 294.163 309.183 293.896 311.361 293.161C312.192 292.881 313.366 292.555 313.112 291.528C312.978 290.991 311.858 290.5 311.103 290.333C309.254 289.923 308.973 289.58 309.542 287.766C309.867 286.728 310.279 285.707 310.497 284.648C310.814 283.105 309.94 282.371 308.386 282.749C308.143 282.808 307.883 282.84 307.635 282.827C302.595 282.56 298.692 284.773 295.439 288.256C293.792 290.02 292.769 292.065 293.686 294.636C290.896 295.836 288.152 294.989 285.172 294.759H285.171ZM270.729 291.373C267.956 293.935 265.154 296.452 262.447 299.062C261.392 300.08 260.466 301.253 259.645 302.461C259.116 303.239 259.008 304.216 259.735 305.037C260.436 305.828 261.31 305.67 262.231 305.46C264.317 304.986 266.399 304.37 268.517 304.185C271.757 303.902 275.026 303.905 278.284 303.84C281.795 303.77 285.266 303.556 288.178 301.342C288.582 301.035 288.664 300.325 288.894 299.802C288.325 299.715 287.743 299.506 287.19 299.562C284.988 299.784 282.781 300.388 280.601 300.296C276.645 300.129 272.721 299.256 268.434 300.013C268.835 299.605 269.006 299.436 269.171 299.262C271.47 296.835 273.817 294.449 276.038 291.956C276.715 291.197 277.204 290.188 277.493 289.213C277.896 287.857 277.092 286.97 275.65 287.079C271.758 287.37 267.868 287.69 263.989 288.107C263.441 288.166 262.665 288.759 262.533 289.243C262.401 289.731 262.782 290.591 263.226 290.927C263.788 291.352 264.638 291.584 265.369 291.594C267.115 291.617 268.865 291.462 270.729 291.373ZM291.51 311.47C289.969 315.415 289.044 319.384 289.486 323.561C289.571 324.37 289.505 325.492 290.552 325.542C290.995 325.563 291.682 324.538 291.936 323.872C293.523 319.722 295.034 315.544 296.531 311.362C296.811 310.578 297.273 310.171 298.075 309.879C301.087 308.783 304.067 307.602 307.052 306.437C307.648 306.205 308.249 305.951 308.777 305.605C309.043 305.43 309.15 305.025 309.329 304.725C309.005 304.572 308.687 304.312 308.354 304.293C307.85 304.264 307.33 304.371 306.829 304.474C304.238 305.007 301.652 305.558 298.98 306.12C299.409 305.005 299.858 304.018 300.161 302.991C300.398 302.187 300.316 301.215 299.38 300.999C298.794 300.865 297.876 301.213 297.412 301.651C296.592 302.425 295.801 303.348 295.359 304.359C294.202 307.001 292.317 308.047 289.415 307.549C288.425 307.38 287.615 307.883 287.392 308.89C287.159 309.942 287.847 310.571 288.76 310.875C289.6 311.155 290.501 311.26 291.51 311.47L291.51 311.47ZM276.112 318.436C276.192 316.871 276.467 315.36 276.298 313.899C276.014 311.446 273.296 310.495 271.346 312.084C271.105 312.281 271.02 313.127 271.099 313.162C272.613 313.83 271.859 314.853 271.604 315.812C271.199 317.342 270.605 318.863 270.481 320.417C270.303 322.641 271.955 323.889 274.207 323.555C276.038 323.283 277.461 322.295 278.75 321.103C279.67 320.25 280.507 319.312 281.447 318.345C281.758 320.255 282.751 321.633 284.355 322.527C284.766 322.756 285.539 322.81 285.883 322.576C286.18 322.374 286.176 321.651 286.176 321.157C286.177 320.541 285.94 319.915 285.992 319.308C286.151 317.435 286.393 315.568 286.616 313.701C286.71 312.912 286.981 312.112 286.902 311.344C286.829 310.632 286.593 309.672 286.075 309.33C285.251 308.787 284.601 309.613 284.107 310.252C283.67 310.818 283.292 311.429 282.901 312.028C281.164 314.69 278.809 316.723 276.112 318.436ZM251.582 301.284C251.862 302.784 252.151 304.125 253.302 305.102C254.353 305.993 255.75 305.587 256.079 304.431C256.452 303.125 256.9 301.831 257.429 300.576C258.434 298.19 259.687 295.889 260.503 293.447C260.931 292.17 260.72 290.664 260.644 289.27C260.624 288.906 260.083 288.401 259.681 288.28C259.356 288.183 258.704 288.453 258.498 288.754C256.653 291.459 254.775 294.151 253.123 296.967C252.361 298.268 252.081 299.837 251.582 301.284ZM258.045 284.191C258.019 286.196 259.361 287.127 260.811 286.433C261.514 286.097 262.195 285.552 262.66 284.939C264.055 283.099 265.374 281.201 266.641 279.274C266.918 278.853 266.857 278.22 266.951 277.685C266.388 277.639 265.764 277.417 265.27 277.576C262.6 278.437 260.363 279.929 258.856 282.29C258.417 282.977 258.206 283.802 258.045 284.191Z" fill="#C8102E"/>
<path d="M198.029 308.696C198.134 307.911 198.189 307.117 198.353 306.344C198.632 305.027 199.316 303.991 200.78 303.732C202.293 303.464 203.74 303.81 204.492 305.14C205.198 306.389 205.727 307.814 205.957 309.22C206.376 311.773 206.526 314.368 206.765 316.948C206.891 318.313 205.954 319.225 204.556 319.032C201.942 318.672 199.876 317.512 199.168 314.866C198.631 312.855 198.305 310.789 197.885 308.748C197.933 308.731 197.981 308.713 198.029 308.695V308.696Z" fill="#C8102E"/>
<path d="M304.954 286.668C304.197 289.419 302.352 290.858 299.25 291.117C299.74 289.055 302.205 287.132 304.954 286.668Z" fill="#C8102E"/>
<path d="M238.45 300.288C238.503 299.811 238.475 299.31 238.622 298.863C239.772 295.38 240.955 291.908 242.209 288.195C243.647 288.197 245.392 288.446 246.796 289.693C248.199 290.939 248.219 293.065 246.864 294.829C245.408 296.724 243.405 297.917 241.19 298.798C240.557 299.05 239.878 299.208 239.268 299.503C238.942 299.661 238.717 300.019 238.446 300.287L238.45 300.288Z" fill="#C8102E"/>
<path d="M298.395 272.48C290.677 272.963 282.519 273.239 274.415 274.043C264.562 275.021 254.75 276.417 244.928 277.684C239.954 278.327 234.995 279.087 230.029 279.788C229.648 279.842 229.207 279.973 228.886 279.846C228.296 279.615 227.533 279.328 227.303 278.853C227.131 278.497 227.56 277.697 227.943 277.295C228.487 276.725 229.217 276.312 229.898 275.878C236.921 271.4 244.35 267.681 252.169 264.713C253.223 264.312 253.972 263.71 254.582 262.787C256.208 260.328 257.932 257.931 259.577 255.484C260.252 254.479 261.102 253.952 262.352 253.716C270.857 252.113 279.345 250.423 287.841 248.774C289.449 248.463 290.148 248.879 290.564 250.446C291.155 252.671 291.705 254.906 292.212 257.15C292.457 258.237 293.004 258.82 294.154 259.164C300.342 261.016 306.563 262.799 312.371 265.666C313.899 266.421 315.432 267.177 316.896 268.042C317.861 268.612 318.734 269.349 318.226 270.699C317.786 271.871 316.759 272.488 315.301 272.485C309.808 272.472 304.316 272.48 298.395 272.48Z" fill="white"/>
<path d="M260.227 321.847C258.241 322.52 256.173 323.18 254.146 323.944C253.768 324.086 253.411 324.603 253.291 325.015C252.638 327.266 252.147 329.565 251.422 331.792C251.055 332.919 250.417 334.002 249.708 334.971C249.071 335.843 248.024 336.128 246.932 335.795C245.822 335.456 245.359 334.507 245.445 333.534C245.64 331.3 246.023 329.08 246.361 326.859C246.447 326.294 246.653 325.747 246.777 325.29C245.602 324.911 244.485 324.704 243.526 324.205C241.987 323.404 241.935 321.985 243.483 321.227C244.796 320.585 246.294 320.249 247.748 319.951C248.563 319.785 248.962 319.464 249.331 318.748C250.962 315.578 252.631 312.423 254.404 309.327C254.933 308.405 255.767 307.6 256.606 306.908C257.458 306.206 258.353 306.608 258.378 307.695C258.4 308.638 258.259 309.623 257.978 310.526C257.16 313.159 256.236 315.76 255.279 318.595C257.388 318.132 259.35 317.741 261.281 317.237C261.618 317.149 261.901 316.618 262.076 316.234C263.151 313.869 264.138 311.464 265.263 309.123C265.692 308.231 266.32 307.383 267.031 306.683C267.436 306.284 268.191 306.222 268.789 306.008C268.982 306.598 269.419 307.228 269.324 307.77C269.002 309.621 268.487 311.439 268.057 313.272C267.899 313.948 267.775 314.631 267.596 315.501C268.246 315.269 268.672 315.026 269.119 314.982C269.619 314.932 270.138 315.064 270.648 315.116C270.427 315.571 270.308 316.127 269.962 316.458C269.387 317.007 268.714 317.503 267.996 317.857C267.077 318.311 266.767 318.994 266.625 319.931C266.337 321.831 266.037 323.741 265.548 325.597C265.267 326.66 264.714 327.7 264.08 328.616C263.474 329.491 262.491 329.878 261.355 329.544C260.205 329.205 259.865 328.265 259.881 327.285C259.911 325.462 260.104 323.642 260.227 321.847Z" fill="white"/>
<path d="M285.171 294.759C288.152 294.989 290.895 295.836 293.686 294.636C292.769 292.065 293.791 290.019 295.438 288.256C298.691 284.774 302.594 282.56 307.634 282.827C307.883 282.84 308.143 282.808 308.385 282.749C309.939 282.371 310.814 283.105 310.496 284.648C310.278 285.707 309.866 286.728 309.541 287.766C308.972 289.58 309.254 289.923 311.102 290.333C311.857 290.5 312.978 290.991 313.111 291.528C313.366 292.555 312.191 292.881 311.361 293.161C309.182 293.896 307.015 294.163 304.976 292.638C303.882 293.333 302.807 294.091 301.66 294.727C299.801 295.757 297.844 296.445 295.636 295.959C295.403 295.908 295.031 296.001 294.872 296.163C293.077 297.999 290.73 298.466 288.306 298.62C286.167 298.755 284.014 298.669 281.871 298.758C280.719 298.806 279.57 298.989 278.427 299.162C276.9 299.392 276.093 298.578 276.774 297.218C277.382 296.005 278.215 294.818 279.213 293.889C281.134 292.103 283.241 290.507 285.272 288.833C285.693 288.486 286.117 288.144 286.836 287.558C285.335 287.719 284.19 287.913 283.04 287.943C281.938 287.972 280.797 287.975 279.738 287.724C278.507 287.433 277.871 286.261 278.165 285.206C278.491 284.034 279.398 284.043 280.477 283.954C283.248 283.725 285.994 283.218 288.759 282.904C289.766 282.79 290.833 282.755 291.814 282.955C293.681 283.334 294.281 284.797 293.255 286.378C292.711 287.217 291.987 287.955 291.29 288.689C290.327 289.701 289.315 290.668 288.321 291.651C287.334 292.628 286.343 293.602 285.171 294.759L285.171 294.759ZM299.25 291.117C299.74 289.055 302.205 287.132 304.954 286.668C304.197 289.419 302.352 290.858 299.25 291.117Z" fill="white"/>
<path d="M238.451 300.288C238.17 300.654 237.796 300.983 237.624 301.393C236.112 304.989 234.679 308.617 233.122 312.195C232.644 313.295 231.94 314.333 231.171 315.269C230.838 315.676 229.958 316.057 229.547 315.9C229.047 315.709 228.451 314.926 228.471 314.421C228.543 312.555 228.665 310.655 229.105 308.846C230.841 301.725 233.514 294.969 237.941 288.76C237.526 288.857 237.278 288.986 237.055 288.954C236.385 288.857 235.395 288.902 235.142 288.513C234.807 287.997 234.87 287.062 235.101 286.424C235.307 285.851 235.891 285.307 236.449 284.97C239.896 282.889 243.608 282.146 247.532 283.387C252.953 285.102 254.86 290.504 251.648 295.079C248.981 298.876 245.098 300.744 240.48 301.221C239.103 301.363 238.703 301.093 238.447 300.287C238.718 300.019 238.942 299.661 239.269 299.503C239.879 299.208 240.557 299.05 241.191 298.798C243.406 297.917 245.409 296.725 246.865 294.83C248.22 293.065 248.2 290.94 246.797 289.694C245.392 288.446 243.648 288.198 242.209 288.195C240.956 291.909 239.773 295.381 238.623 298.863C238.476 299.31 238.504 299.812 238.451 300.288Z" fill="white"/>
<path d="M270.729 291.373C268.865 291.462 267.115 291.617 265.369 291.594C264.638 291.584 263.788 291.352 263.226 290.927C262.782 290.591 262.401 289.731 262.533 289.243C262.665 288.759 263.441 288.166 263.989 288.107C267.868 287.69 271.758 287.37 275.65 287.079C277.092 286.97 277.896 287.857 277.493 289.213C277.204 290.188 276.715 291.197 276.038 291.956C273.817 294.449 271.47 296.835 269.171 299.262C269.006 299.436 268.835 299.605 268.434 300.013C272.721 299.256 276.645 300.129 280.601 300.296C282.781 300.388 284.988 299.784 287.19 299.562C287.743 299.506 288.325 299.715 288.894 299.802C288.664 300.325 288.582 301.035 288.178 301.342C285.266 303.556 281.795 303.77 278.284 303.84C275.026 303.905 271.757 303.902 268.517 304.185C266.399 304.37 264.317 304.986 262.231 305.46C261.31 305.67 260.436 305.828 259.735 305.037C259.008 304.216 259.116 303.239 259.645 302.461C260.466 301.253 261.392 300.08 262.447 299.062C265.154 296.452 267.956 293.935 270.729 291.373Z" fill="white"/>
<path d="M291.51 311.47C290.501 311.26 289.6 311.155 288.76 310.875C287.847 310.571 287.159 309.942 287.392 308.89C287.615 307.883 288.425 307.38 289.415 307.549C292.317 308.047 294.202 307.001 295.359 304.359C295.801 303.348 296.592 302.425 297.412 301.651C297.876 301.213 298.794 300.865 299.38 300.999C300.316 301.215 300.398 302.187 300.161 302.991C299.858 304.018 299.409 305.005 298.98 306.12C301.652 305.558 304.238 305.007 306.829 304.474C307.33 304.371 307.85 304.264 308.354 304.293C308.687 304.312 309.005 304.572 309.329 304.725C309.15 305.025 309.043 305.43 308.777 305.605C308.249 305.951 307.648 306.205 307.052 306.437C304.067 307.602 301.087 308.783 298.075 309.879C297.273 310.171 296.811 310.578 296.531 311.362C295.034 315.544 293.523 319.722 291.936 323.872C291.682 324.538 290.995 325.563 290.552 325.542C289.505 325.492 289.571 324.37 289.486 323.561C289.044 319.384 289.969 315.415 291.51 311.47L291.51 311.47Z" fill="white"/>
<path d="M276.112 318.436C278.809 316.723 281.164 314.69 282.901 312.028C283.292 311.429 283.67 310.818 284.107 310.252C284.601 309.613 285.251 308.787 286.075 309.33C286.593 309.672 286.829 310.632 286.902 311.344C286.981 312.112 286.71 312.912 286.616 313.701C286.393 315.568 286.151 317.435 285.992 319.308C285.94 319.915 286.177 320.541 286.176 321.157C286.176 321.651 286.18 322.374 285.883 322.576C285.539 322.81 284.766 322.756 284.355 322.527C282.751 321.633 281.758 320.255 281.447 318.345C280.507 319.312 279.67 320.25 278.75 321.103C277.461 322.295 276.038 323.283 274.207 323.555C271.955 323.889 270.303 322.641 270.481 320.417C270.605 318.863 271.199 317.342 271.604 315.812C271.859 314.853 272.613 313.83 271.099 313.162C271.02 313.127 271.105 312.281 271.346 312.084C273.296 310.495 276.014 311.446 276.298 313.899C276.467 315.36 276.192 316.871 276.112 318.436Z" fill="white"/>
<path d="M251.583 301.284C252.081 299.837 252.361 298.268 253.124 296.968C254.775 294.151 256.654 291.459 258.498 288.755C258.704 288.453 259.357 288.183 259.682 288.281C260.084 288.401 260.624 288.907 260.644 289.27C260.72 290.665 260.931 292.17 260.504 293.448C259.687 295.89 258.434 298.191 257.429 300.577C256.901 301.831 256.452 303.125 256.08 304.432C255.751 305.588 254.353 305.993 253.303 305.102C252.151 304.125 251.863 302.785 251.583 301.284Z" fill="white"/>
<path d="M258.045 284.191C258.206 283.802 258.417 282.977 258.856 282.29C260.363 279.929 262.6 278.437 265.27 277.576C265.764 277.417 266.388 277.639 266.951 277.685C266.857 278.22 266.918 278.853 266.641 279.274C265.374 281.201 264.055 283.099 262.66 284.939C262.195 285.552 261.514 286.097 260.811 286.433C259.361 287.127 258.019 286.196 258.045 284.191Z" fill="white"/>
<path d="M457.479 425.886C457.479 425.886 447.92 422.12 444.373 424.077C440.827 426.034 400.849 444.613 386.374 455.406C377.36 462.13 376.546 472.729 377.671 480.547C372.884 479.521 365.271 477.976 363.021 478.036C359.665 478.131 364.991 482.641 365.436 484.924C365.88 487.207 363.1 487.928 365.307 490.653C367.514 493.378 371.479 495.932 370.922 496.876C370.36 497.821 370.47 503.729 373.404 500.386C375.31 498.214 378.388 493.21 380.315 489.967C380.364 490.056 380.404 490.141 380.448 490.212C382.319 493.449 391.68 497.634 391.68 497.634C391.68 497.634 399.46 498.787 407.217 495.896C414.973 492.997 471.843 462.925 471.843 462.925L457.484 425.878L457.479 425.886Z" fill="#A13137"/>
<path d="M435.449 451.803C437.345 454.549 448.387 471.279 469.015 464.048C483.5 460.199 481.578 434.856 468.672 424.804C455.895 414.856 419.304 428.397 435.449 451.803Z" fill="#DB3339"/>
<path d="M444.396 447.87C445.058 447.421 449.397 446.152 447.65 440.69C446.718 436.876 440.299 435.646 437.888 438.837C435.501 441.995 438.777 451.694 444.396 447.87Z" fill="white"/>
<path d="M472.85 446.777C472.792 446.211 472.519 442.786 468.801 441.982C466.292 441.24 464.46 446.688 465.569 449.305C466.679 451.922 473.332 451.624 472.843 446.772L472.85 446.777Z" fill="white"/>
<path d="M467.02 431.789C466.951 431.076 468.136 428.139 463.491 427.139C460.362 426.214 456.56 429.698 457.943 432.971C459.319 436.213 467.628 437.854 467.016 431.797L467.02 431.789Z" fill="white"/>
<path d="M461.545 457.398C461.474 456.707 461.14 452.527 456.604 451.548C453.545 450.647 451.321 455.352 452.68 458.551C454.038 461.749 462.136 463.32 461.545 457.398Z" fill="white"/>
<path d="M460.169 444.476C460.133 444.099 459.952 441.84 457.496 441.308C455.838 440.821 454.638 443.364 455.371 445.099C456.104 446.834 460.49 447.68 460.169 444.476Z" fill="white"/>
<path d="M452.634 432.252C452.597 431.876 452.417 429.617 449.961 429.085C448.303 428.598 447.103 431.14 447.835 432.875C448.563 434.591 452.955 435.456 452.634 432.252Z" fill="white"/>
<path d="M396.85 452.781C396.85 452.781 386.341 458.02 383.436 464.253C380.524 470.486 381.541 480.235 384.731 484.048C384.731 484.048 382.647 472.901 385.252 467.348C387.857 461.796 389.214 458.621 396.85 452.781Z" fill="white"/>
<path d="M484.293 454.831C484.73 455.185 485.04 454.645 484.745 454.344C484.192 453.788 483.791 454.424 484.293 454.831ZM493.765 446.951C493.591 446.749 493.985 446.52 494.193 446.679C494.256 446.725 494.205 446.933 494.207 447.196C493.984 447.08 493.839 447.041 493.765 446.951ZM398.116 525.972C397.506 526.24 396.866 525.617 397.258 525.226C398.155 524.356 399.267 525.467 398.116 525.972ZM483.715 459.951C483.397 459.123 484.84 459.446 484.257 460.105C484.117 460.267 483.797 460.175 483.715 459.951ZM480.754 460.776C480.417 460.87 480.222 460.302 480.582 460.088C481.001 459.832 481.171 460.662 480.754 460.776ZM436.565 483.105C436.864 483.215 437.079 483.251 437.238 483.369C437.541 483.6 436.538 484.617 436.565 483.105ZM433.53 521.382C433.437 521.269 433.45 521.064 433.398 520.779C433.669 520.829 433.858 520.811 433.984 520.902C434.211 521.064 433.837 521.754 433.53 521.382ZM423.284 502.605C423.594 503.145 422.825 503.451 422.565 502.953C422.268 502.389 423.042 502.183 423.284 502.605ZM367.036 482.947C366.362 482.035 367.144 482.145 366.916 480.775C366.739 479.71 368.187 479.748 367.98 480.594C367.834 481.17 367.424 481.308 368.088 481.514C370.177 482.148 368.228 484.559 367.042 482.946L367.036 482.947ZM408.68 484.203C408.637 484.416 408.644 484.576 408.579 484.673C408.288 485.107 407.745 484.333 408.208 484.174C408.321 484.134 408.469 484.186 408.68 484.203ZM426.068 501.181C426.788 500.658 428.126 501.877 427.248 502.053C426.825 502.141 425.977 501.743 426.068 501.181ZM401.698 507.952C402.746 507.627 402.039 509.464 401.229 509.577C400.296 509.713 400.681 508.27 401.698 507.952ZM440.211 517.135C440.056 517.105 439.899 517.075 439.656 517.032C439.72 516.821 439.691 516.375 440.244 516.776C440.292 516.812 440.225 517.01 440.211 517.135ZM401.492 435.513C400.692 435.334 400.411 433.828 401.725 434.695C401.928 435.166 401.971 435.622 401.492 435.513ZM429.708 443.281C430.538 443.454 430.654 442.758 431.138 443.195C431.337 443.37 430.994 443.83 430.869 443.766C430.12 443.405 429.623 444.456 429.374 443.928C429.25 443.668 429.341 443.207 429.71 443.288L429.708 443.281ZM377.995 523.462C378.706 523.21 379.332 523.749 379.014 524.102C378.184 525.01 376.971 523.829 377.995 523.462ZM419.927 488.603C419.89 488.585 419.911 488.412 419.907 488.217C420.08 488.263 420.224 488.269 420.319 488.341C420.382 488.386 420.4 488.814 419.932 488.596L419.927 488.603ZM416.797 489.705C417.98 489.043 418.109 491.355 416.987 490.611C416.601 490.359 416.419 489.917 416.797 489.705ZM441.328 462.621C442.032 462.776 441.732 463.199 441.583 463.275C441.184 463.486 440.836 462.975 441.328 462.621ZM423.149 486.765C423.534 487.348 422.794 487.869 422.49 487.301C422.197 486.75 422.839 486.299 423.149 486.765ZM444.211 449.724C444.51 449.22 445.349 450.713 444.6 450.684C444.197 450.672 443.934 450.189 444.211 449.724ZM376.868 502.85C378.268 503.541 380.381 505.816 378.864 505.991C377.962 506.099 376.096 505.837 376.132 504.951C376.177 503.975 376.169 502.505 376.868 502.85ZM380.177 459.268C380.388 458.542 381.489 458.353 381.743 459.365C382.271 461.467 379.759 460.711 380.177 459.268ZM454.695 474.278C453.868 474.401 453.321 473.378 454.57 472.647C455.717 471.974 456.008 474.085 454.695 474.278ZM413.047 525.21C413.674 524.803 414.649 525.859 413.961 526.436C413.295 526.994 412.464 525.586 413.047 525.21ZM496.39 478.586C496.544 478.529 496.725 478.56 497.008 478.553C496.957 478.815 496.972 479.027 496.877 479.138C496.534 479.544 496.03 478.72 496.39 478.586ZM432.655 491.319C432.605 491.534 432.607 491.695 432.537 491.8C432.237 492.277 431.694 491.502 432.171 491.321C432.29 491.279 432.441 491.317 432.655 491.319ZM442.05 482.135C442.155 482.062 442.296 482.062 442.538 481.997C442.362 483.12 441.716 482.37 442.05 482.135ZM435.183 477.94C435.11 478.086 435.075 478.229 434.991 478.304C434.955 478.339 434.723 478.239 434.724 478.192C434.689 477.667 434.92 477.841 435.19 477.939L435.183 477.94ZM427.265 425.058C426.548 424.23 427.684 423.209 428.409 423.987C429.045 424.672 427.911 425.807 427.265 425.058ZM410.799 469.99C410.627 469.228 410.438 468.476 410.462 468.032C410.565 466.259 412.606 466.526 412.74 467.52C412.911 468.816 411.828 468.691 412.342 469.404C412.679 469.871 413.025 470.247 412.421 470.668C411.702 471.171 410.997 470.881 410.793 469.992L410.799 469.99ZM461.959 434.858C462.858 435.406 462.001 435.665 461.887 435.24C461.865 435.151 461.922 435.043 461.959 434.858ZM479.937 422.624C480.446 422.88 480.402 422.702 480.292 423.242C479.778 423.095 479.9 423.221 479.937 422.624ZM437.527 503.162C437.499 502.487 438.437 501.931 439.09 502.504C440.211 503.497 437.559 503.984 437.527 503.162ZM429.365 476.762C429.331 477.473 429.017 477.635 428.645 477.441C427.887 477.042 429.415 475.832 429.365 476.762ZM473.222 397.026C474.025 396.32 474.809 397.105 474.389 397.435C473.694 397.98 472.826 397.35 473.222 397.026ZM475.155 441.161C475.108 440.997 475.145 440.813 475.144 440.55C476.406 440.875 475.297 441.62 475.155 441.161ZM471.111 444.271C471.081 444.406 471.09 444.573 471.009 444.66C470.875 444.82 470.603 444.791 470.542 444.623C470.501 444.511 470.554 444.364 470.576 444.142C470.802 444.196 470.953 444.234 471.105 444.272L471.111 444.271ZM479.377 438.037C479.823 437.606 480.256 438.582 479.756 438.904C479.367 439.153 478.977 438.423 479.377 438.037ZM426.395 483.584C426.824 484.007 426.173 484.704 425.723 484.143C425.357 483.691 425.991 483.181 426.395 483.584ZM486.349 426.779C486.116 427.011 485.884 426.06 486.377 425.841C486.488 425.794 487.368 425.779 486.349 426.779ZM487.237 419.35C487.096 418.431 488.101 418.4 488.26 419.212C488.44 420.108 487.408 420.47 487.237 419.35ZM467.65 437.761C467.012 438.097 466.786 436.584 467.334 436.838C467.786 437.047 467.883 437.638 467.65 437.761ZM447.429 415.851C446.582 416.973 444.097 411.472 447.285 414.866C447.602 415.202 447.715 415.472 447.429 415.851ZM415.024 440.967C414.764 440.705 415.155 440.078 415.579 440.071C416.583 440.06 415.619 441.567 415.024 440.967ZM457.705 459.628C456.734 458.484 459.036 457.865 459.412 459.645C459.59 460.507 458.536 460.597 457.705 459.628ZM478.742 421.385C478.481 421.758 477.812 421.304 478.153 420.865C478.441 420.498 479.217 420.711 478.742 421.385ZM467.141 441.077C466.813 441.081 466.653 440.599 467.104 440.444C467.686 440.885 467.211 441.073 467.141 441.077ZM395.805 476.175C396.493 476.989 395.387 477.747 394.721 476.921C394.195 476.264 395.226 475.49 395.805 476.175ZM416.799 412.544C416.07 412.239 416.16 410.8 416.918 410.963C417.915 411.183 417.605 412.877 416.799 412.544ZM475.333 480.54C474.991 480.797 474.446 480.144 475.077 479.676C475.7 479.945 475.572 480.361 475.333 480.54ZM447.717 391.471C446.773 390.462 448.367 388.588 448.592 389.614C448.834 390.704 448.387 392.188 447.717 391.471ZM415.026 457.642C414.756 458.287 414.41 457.965 414.35 457.75C414.246 457.39 414.747 457.148 415.026 457.642Z" fill="#D93339"/>
<path d="M229.905 154.742L237.976 159.64C237.976 159.64 242.911 153.152 247.118 152.481C251.325 151.81 254.969 153.555 257.243 158.241C259.524 162.925 260.843 166.511 260.843 166.511C260.843 166.511 266.124 156.882 278.308 160.98C290.491 165.078 289.55 176.471 289.619 179.236C289.687 182 289.627 183.592 289.627 183.592L297.73 185.175C297.73 185.175 300.175 181.414 300.126 172.23C300.079 163.052 289.487 151.585 282.317 149.378C275.143 147.178 262.487 155.709 262.487 155.709C262.487 155.709 258.685 143.503 248.716 141.903C238.753 140.302 229.898 154.737 229.898 154.737L229.905 154.742Z" fill="#E6BB95"/>
<path d="M107.647 54.1539L104.718 52.1721C102.143 53.4576 98.8916 53.5602 97.659 52.1542C96.4257 50.7525 96.0602 48.5416 96.5506 46.6439L80.3448 35.6715C79.56 39.2606 73.7441 39.31 72.2119 37.0688C71.2168 35.6122 72.567 33.0275 74.3379 31.608L70.7151 29.1549L63.7567 29.4551L46.9594 63.3852L121.868 87.7104L124.896 83.9533L107.642 54.1576L107.647 54.1539ZM66.8158 55.942C63.738 58.7268 59.4393 58.8862 58.7407 58.5464C52.8219 55.6677 58.7527 47.7526 62.6946 48.143C66.6941 48.5415 69.9609 53.0961 66.8164 55.9377L66.8158 55.942ZM82.1988 56.9212C76.0209 54.6368 77.8716 48.5558 77.8716 48.5558C78.5596 43.8776 89.5025 44.2779 91.4689 48.9512C93.4256 53.5966 88.4928 59.2483 82.1988 56.9212Z" fill="#E6BB95"/>
<path d="M106.113 85.9961C110.297 85.3623 113.543 87.8598 113.797 88.6005C113.815 88.6604 113.835 88.716 113.854 88.776C118.402 88.1842 121.872 87.711 121.872 87.711L102.492 59.9026C102.492 59.9026 85.7322 61.8657 81.3447 61.4617C76.9572 61.0576 68.8661 62.3814 68.8661 62.3814L46.9638 63.3858C46.9638 63.3858 45.9402 65.412 46.3501 66.9149C46.5391 67.6025 49.7221 71.59 53.1219 75.7092C54.5029 72.4808 58.2764 69.2773 60.8686 70.3348C64.7004 71.9045 65.2911 77.3339 65.2911 77.3339C64.795 80.6678 61.5166 82.1022 58.4055 82.0435C60.2136 84.1865 61.4836 85.6814 61.4836 85.6814L64.6874 89.6499C64.6874 89.6499 67.2171 94.6925 68.9466 94.9334C69.4699 95.0063 71.4341 94.6981 74.0775 94.22C70.7277 91.8182 71.9815 87.6861 71.9815 87.6861C72.5939 83.5176 82.336 83.874 84.0886 88.037C84.7066 89.5072 84.55 91.0856 83.8436 92.4242C87.9237 91.6922 91.8129 91.0658 93.9812 90.98C95.6585 90.9139 98.7531 90.6044 102.295 90.1986C102.629 88.1557 103.901 86.3272 106.108 85.9955L106.113 85.9961Z" fill="#A13137"/>
<path d="M90.9287 79.4683C91.8178 79.9007 97.2846 79.6969 101.201 76.1517C105.199 72.5342 101.043 66.7404 95.9594 66.235C90.9473 65.7396 83.4013 75.8057 90.9287 79.4683Z" fill="white"/>
<path d="M89.1593 54.0426C89.3578 54.37 89.7053 54.1143 89.5877 53.8554C89.3653 53.3748 88.9313 53.667 89.1593 54.0426ZM112.085 49.3238C112.732 49.1934 113.273 49.7537 112.918 50.0305C112.213 50.5846 111.429 49.4572 112.085 49.3238ZM97.5313 51.5457C97.4687 51.3783 97.7912 51.3351 97.8878 51.4852C97.9179 51.529 97.8294 51.6446 97.7616 51.807C97.6436 51.6804 97.5571 51.6199 97.5313 51.5457ZM13.1327 76.42C12.6562 76.433 12.3929 75.8894 12.7564 75.7461C13.582 75.4335 14.0312 76.3953 13.1327 76.42ZM87.4331 57.0553C87.4384 56.4654 88.3145 57.0238 87.7537 57.2851C87.6181 57.35 87.4291 57.2135 87.4331 57.0553ZM85.2455 56.8255C84.9959 56.7996 85.0153 56.4011 85.3105 56.3585C85.657 56.3054 85.5527 56.8595 85.2455 56.8255ZM49.9673 59.5768C50.1373 59.7195 50.2713 59.7955 50.3462 59.9073C50.4876 60.1254 49.5536 60.5022 49.9673 59.5768ZM37.9203 82.4166C37.888 82.3239 37.9504 82.2004 37.9902 82.0119C38.1573 82.1102 38.288 82.146 38.3481 82.2337C38.4574 82.39 38.0268 82.7223 37.9203 82.4166ZM36.0145 68.2875C36.0794 68.6977 35.4877 68.6946 35.4445 68.3227C35.3947 67.9014 35.9642 67.9675 36.0145 68.2875ZM3.70313 42.1513C3.49293 41.4211 3.98527 41.6836 4.19221 40.7824C4.35309 40.0818 5.30767 40.4661 4.94833 40.9362C4.70058 41.2543 4.39098 41.2376 4.77973 41.5298C6.00446 42.441 4.07486 43.4417 3.70756 42.1519L3.70313 42.1513ZM31.1086 53.3041C31.024 53.4246 30.9873 53.5253 30.918 53.5685C30.6106 53.7637 30.4518 53.1509 30.8019 53.1688C30.8874 53.1719 30.9727 53.2411 31.1086 53.3041ZM68.3273 101.001C68.5301 101.492 67.7039 101.809 67.6268 101.291C67.5763 100.94 68.1574 100.598 68.3273 101.001ZM20.5641 94.8541C19.9609 94.2191 20.5515 93.1597 21.1211 94.3278C21.2973 95.0753 20.8281 95.1333 20.5641 94.8541ZM38.2416 68.1041C38.8583 67.9607 39.4305 69.0455 38.7994 68.9355C38.4946 68.8843 38.0338 68.4278 38.2416 68.1041ZM30.5529 89.3513C30.5642 88.6212 32.0808 88.4754 31.8231 88.9949C31.4355 89.7652 30.5453 89.8925 30.5529 89.3513ZM110.842 42.0579C110.675 41.6953 111.31 41.3604 111.541 41.8071C111.78 42.2679 111.05 42.5144 110.842 42.0579ZM20.2384 66.2044C21.021 66.265 20.0696 67.2212 19.5003 67.089C18.843 66.9402 19.4779 66.147 20.2384 66.2044ZM82.3029 83.4947C82.1289 83.6733 81.3918 83.3502 81.8958 82.8473C82.0114 82.8943 82.1704 82.9208 82.271 83.0098C82.4239 83.1457 82.4236 83.3749 82.308 83.491L82.3029 83.4947ZM102.173 57.6188C102.053 57.6725 101.963 57.6027 101.948 57.486C101.938 57.4273 101.997 57.3562 102.056 57.2277C102.16 57.326 102.448 57.4983 102.177 57.6237L102.173 57.6188ZM57.7301 71.317C57.9921 72.0324 57.0087 72.6007 56.9684 72.0793C56.9124 71.4103 57.5888 70.9359 57.7301 71.317ZM43.4823 81.4634C43.3864 81.406 43.2904 81.3485 43.1398 81.2614C43.2371 81.1471 43.3351 80.8654 43.5979 81.2503C43.6203 81.2843 43.5242 81.3899 43.4823 81.4634ZM52.9296 90.5554C52.7365 90.9032 52.8416 90.8297 52.4528 90.7006C52.7124 90.3621 52.5917 90.3849 52.9296 90.5554ZM99.9384 61.1998C100.224 61.2925 99.9057 61.8565 99.4556 61.7453C99.176 61.6755 99.4925 61.0584 99.9384 61.1998ZM114.925 67.3915C113.356 67.2303 113.561 65.694 114.531 65.9083C115.663 66.1542 115.861 67.4867 114.925 67.3915ZM100.257 76.7608C100.247 76.2833 100.528 76.3401 100.235 75.8762C99.9685 75.4555 100.551 75.0694 100.804 75.3295C101.073 75.6093 100.762 75.9231 100.728 76.1078C100.621 76.6484 100.885 76.7645 101.161 77.2482C101.499 77.8375 100.28 77.6015 100.261 76.7614L100.257 76.7608ZM59.2072 75.186C58.7505 75.9334 58.5203 75.055 58.9077 75.0649C58.9931 75.068 59.0796 75.1285 59.2072 75.186ZM112.198 78.2391C111.518 78.4485 111.41 78.3454 111.47 78.918C111.482 79.0298 111.47 79.1163 111.442 79.1873C111.269 79.225 111.093 79.2578 110.924 79.3004C110.924 79.3004 110.92 79.2998 110.921 79.2954C110.381 78.4312 110.327 78.1724 110.464 78.0328C111.15 77.3218 110.79 76.5001 111.399 76.8053C112.725 77.4706 112.57 78.1279 112.202 78.2397L112.198 78.2391ZM39.0749 21.4985C38.5892 21.1884 38.7961 20.1901 39.4445 21.0518C39.4558 21.3928 39.3654 21.6844 39.0749 21.4985ZM55.8316 33.319C56.3395 33.6322 56.5987 33.2319 56.8065 33.6223C56.893 33.7799 56.5444 33.9782 56.4775 33.9071C56.0734 33.4982 55.4669 34.022 55.4395 33.6347C55.4255 33.4432 55.6066 33.1819 55.831 33.3233L55.8316 33.319ZM106.807 35.3949C107.186 35.5889 107.181 35.8569 107.025 36.0954C106.712 36.5896 106.159 35.7235 106.807 35.3949ZM0.390071 69.8577C0.92945 69.8799 1.20503 70.3679 0.900948 70.5063C0.110419 70.859 -0.387955 69.8286 0.390071 69.8577ZM37.4466 58.82C37.4268 58.7996 37.4862 58.6977 37.5347 58.5766C37.6378 58.6483 37.7317 58.6878 37.7765 58.7558C37.8065 58.7996 37.7059 59.0677 37.4516 58.8163L37.4466 58.82ZM35.0738 58.7187C36.0343 58.6056 35.5149 60.0629 34.9622 59.3247C34.7712 59.0733 34.7658 58.7551 35.0738 58.7187ZM58.5048 48.1368C58.9326 48.408 58.622 48.594 58.503 48.6039C58.1824 48.6341 58.0846 48.2326 58.5048 48.1368ZM40.0739 58.4895C40.1777 58.9448 39.5483 59.0819 39.4947 58.6557C39.4437 58.243 39.989 58.1251 40.0739 58.4895ZM63.8025 40.9049C64.1337 40.669 64.3018 41.7988 63.8105 41.5937C63.5452 41.4862 63.4964 41.1224 63.8025 40.9049ZM5.03836 56.8709C5.78935 57.6455 6.60101 59.5747 5.54471 59.3042C4.91577 59.146 3.74178 58.5196 3.99748 57.9822C4.28318 57.3916 4.66286 56.4835 5.03836 56.8709ZM18.6571 30.8294C18.9879 30.4346 19.7706 30.5921 19.6748 31.2797C19.476 32.7067 18.0006 31.6151 18.6571 30.8294ZM64.354 58.6539C63.7708 58.5242 63.6743 57.757 64.6973 57.6174C65.6375 57.4883 65.2788 58.8621 64.354 58.6539ZM0.951002 84.3592C1.42651 84.0287 1.73116 84.6001 1.89353 84.8299C2.51011 86.8289 -0.0302312 85.0424 0.951002 84.3592ZM61.985 88.3124C62.6559 88.137 62.4404 89.6189 61.6381 89.0179C61.5267 88.7467 61.7083 88.3841 61.985 88.3124ZM23.2761 79.6713C23.8001 79.5767 24.1728 80.4706 23.564 80.6547C22.9742 80.8326 22.7894 79.7577 23.2761 79.6713ZM90.9937 71.7014C91.1108 71.7045 91.2239 71.7687 91.4136 71.8348C91.3115 71.9837 91.2656 72.1184 91.1735 72.1629C90.8386 72.3278 90.7189 71.694 90.9937 71.7014ZM45.2114 63.6662C45.1224 63.7861 45.0813 63.8861 45.007 63.9331C44.6826 64.1524 44.5239 63.5396 44.8891 63.5464C44.979 63.5501 45.0699 63.6113 45.2114 63.6662ZM53.8745 60.3459C53.9629 60.3274 54.0575 60.3626 54.2355 60.383C53.8242 61.031 53.5901 60.4077 53.8745 60.3459ZM50.4 56.0489C50.3132 56.1205 50.2524 56.2002 50.1766 56.2249C50.1431 56.2379 50.0151 56.1187 50.0282 56.0896C50.1423 55.7573 50.2504 55.9222 50.4045 56.0495L50.4 56.0489ZM58.9779 21.4763C58.7167 20.7875 59.7414 20.441 60.0201 21.1014C60.2647 21.682 59.212 22.0996 58.9779 21.4763ZM41.0247 99.6881C40.8806 99.0993 42.1434 99.121 41.604 99.8128C41.5375 99.9006 41.1022 100.007 41.0247 99.6881ZM36.2428 45.0709C36.3278 44.5582 36.3989 44.0479 36.5312 43.7798C37.0642 42.7123 38.3537 43.3857 38.1823 44.0319C37.9566 44.8732 37.2681 44.526 37.424 45.0944C37.526 45.4656 37.6579 45.7838 37.1454 45.8931C36.535 46.0241 36.1414 45.6695 36.2384 45.0703L36.2428 45.0709ZM79.5166 36.1645C79.9718 36.726 79.3329 36.6722 79.3688 36.3819C79.3772 36.3214 79.4433 36.2689 79.5166 36.1645ZM94.694 33.1036C94.9662 33.3884 94.9831 33.2673 94.7688 33.5725C94.4647 33.3538 94.5129 33.4619 94.694 33.1036ZM45.3543 72.1806C45.5127 71.7574 46.2828 71.6487 46.568 72.1645C47.054 73.0566 45.1604 72.6958 45.3543 72.1806ZM46.8336 53.8725C46.6246 54.3019 46.3728 54.3241 46.1764 54.1116C45.7759 53.6767 47.1106 53.3116 46.8336 53.8725ZM113.797 27.6935C114.102 27.9035 114.081 27.7639 114.121 28.2544C114.123 28.3032 113.656 28.3174 113.652 27.9906C113.65 27.9066 113.73 27.8164 113.793 27.6929L113.797 27.6935ZM96.9267 15.6499C97.6465 15.4152 97.9633 16.0941 97.597 16.1929C96.9912 16.3554 96.5781 15.7512 96.9267 15.6499ZM117.021 57.4786C117.017 58.5096 116.027 58.3144 116.118 57.6615C116.165 57.3242 116.816 56.8065 117.021 57.4786ZM138.186 30.9059C137.854 31.6663 137.666 31.6225 137.815 31.9474C137.892 32.108 137.143 32.7795 137.46 30.9238C137.549 30.416 138.106 30.8595 138.186 30.9059ZM86.6543 43.339C86.6655 43.2259 86.7388 43.1215 86.8066 42.959C87.5621 43.4742 86.628 43.6571 86.6543 43.339ZM83.1462 44.2476C83.0904 44.3236 83.0532 44.4286 82.9762 44.462C82.845 44.5275 82.6717 44.4416 82.6746 44.323C82.6766 44.2439 82.7507 44.1661 82.8232 44.0351C82.9599 44.1247 83.0508 44.1859 83.1418 44.247L83.1462 44.2476ZM90.2841 42.4649C90.6944 42.3104 90.7266 43.0202 90.3094 43.0943C89.9851 43.1506 89.9167 42.6032 90.2841 42.4649ZM131.04 48.6449C130.767 48.0074 130.046 47.9599 130.364 47.4663C130.613 47.0691 131.151 47.3335 131.098 47.6479C130.998 48.2644 131.423 48.165 131.375 48.48C131.34 48.7308 131.057 48.6826 131.04 48.6449ZM43.0688 57.3374C43.2436 57.7056 42.6278 57.9725 42.4745 57.5147C42.3498 57.1447 42.905 56.9884 43.0688 57.3374ZM97.8757 37.2629C97.6605 37.3475 97.7546 36.7038 98.1406 36.6915C98.2267 36.6902 98.8168 36.9003 97.8757 37.2629ZM100.413 32.9041C100.56 32.303 101.238 32.5341 101.131 33.0746C101.016 33.6713 100.234 33.6374 100.413 32.9041ZM82.5461 39.3724C82.0331 39.42 82.2793 38.4316 82.5776 38.7244C82.8242 38.9659 82.7339 39.3545 82.5461 39.3724ZM74.8183 20.8265C73.9603 21.3065 73.746 17.2961 74.9802 20.1834C75.1031 20.4695 75.1077 20.6641 74.8183 20.8265ZM46.6581 28.2325C46.554 28.0064 46.9785 27.7173 47.2628 27.8186C47.9341 28.062 46.8978 28.7508 46.6581 28.2325ZM70.1955 50.3737C69.8483 49.4261 71.5439 49.6183 71.3283 50.8093C71.2209 51.385 70.4948 51.178 70.1955 50.3737ZM94.2226 32.0417C93.951 32.2066 93.6244 31.76 93.9668 31.5741C94.2549 31.4203 94.716 31.7446 94.2226 32.0417ZM81.3387 41.2893C81.1192 41.2102 81.139 40.8735 81.4802 40.8902C81.7522 41.3072 81.3863 41.3047 81.3387 41.2893ZM24.6368 45.1468C24.882 45.8202 23.9467 46.0116 23.7198 45.3364C23.5414 44.8002 24.4309 44.5803 24.6368 45.1468ZM76.4581 67.6576C76.1631 67.7311 75.9713 67.1931 76.514 67.0615C76.858 67.3827 76.6641 67.607 76.4581 67.6576ZM42.292 38.5123C41.9431 38.8428 41.7974 38.558 41.8135 38.4104C41.839 38.1627 42.2356 38.1386 42.292 38.5123Z" fill="#E5BA94"/>
<path d="M91.5784 227.565C83.0192 233.105 70.1866 255.919 71.6319 266.631C73.0773 277.342 87.3868 283.96 95.0662 277.894C102.746 271.827 102.538 266.398 102.538 266.398L114.73 273.2C114.73 273.2 126.758 255.355 125.973 254.019C125.187 252.683 112.172 247.481 112.172 247.481C112.172 247.481 122.02 241.672 117.52 234.484C113.021 227.295 100.138 222.032 91.5784 227.571V227.565ZM96.6499 264.59C97.5863 273.23 90.1582 273.5 89.159 270.724C88.1598 267.948 91.8047 264.008 91.8047 264.008L96.6499 264.596V264.59ZM109.131 238.712C112.694 239.257 116.49 242.621 106.642 246.433C106.642 246.433 101.47 244.153 101.558 243.344C101.646 242.536 105.561 238.166 109.131 238.712Z" fill="#DB3339"/>
<path d="M127.544 252.775C127.883 253.192 128.317 252.769 128.103 252.432C127.701 251.807 127.154 252.297 127.544 252.775ZM158.5 241.776C159.374 241.469 160.235 242.143 159.795 242.597C158.921 243.504 157.614 242.088 158.5 241.776ZM174.835 112.939C173.999 113.999 173.873 113.613 172.918 112.252C172.208 109.905 175.652 111.897 174.835 112.939ZM138.698 247.683C138.579 247.462 139.019 247.34 139.182 247.53C139.233 247.585 139.132 247.763 139.069 248.002C138.881 247.848 138.749 247.781 138.698 247.683ZM26.1898 298.606C25.53 298.716 25.0587 298.012 25.5363 297.742C26.6235 297.148 27.4341 298.398 26.1898 298.606ZM125.727 257.298C125.621 256.477 126.947 257.083 126.218 257.555C126.042 257.672 125.753 257.518 125.727 257.298ZM122.642 257.402C122.29 257.414 122.24 256.857 122.642 256.74C123.113 256.599 123.075 257.39 122.642 257.402ZM74.1331 268.058C74.397 268.224 74.5981 268.303 74.7238 268.444C74.9626 268.72 73.7372 269.425 74.1331 268.058ZM61.8095 302.142C61.7467 302.019 61.8095 301.835 61.8283 301.566C62.0797 301.67 62.2683 301.694 62.3688 301.805C62.5511 302.001 62.0169 302.546 61.8095 302.142ZM56.4238 282.87C56.5935 283.427 55.7702 283.537 55.6383 283.029C55.4874 282.453 56.2918 282.434 56.4238 282.87ZM6.44446 252.794C6.01084 251.819 6.74611 252.089 6.85923 250.796C6.94721 249.791 8.34862 250.14 7.94014 250.863C7.65735 251.354 7.22372 251.39 7.82074 251.721C9.69975 252.751 7.21116 254.516 6.45076 252.794H6.44446ZM46.7019 262.991C46.6077 263.174 46.5762 263.321 46.4883 263.395C46.0986 263.726 45.7593 262.905 46.2495 262.862C46.3689 262.85 46.5008 262.929 46.7019 262.991ZM107.679 322.088C108.056 322.732 106.969 323.332 106.761 322.627C106.623 322.149 107.365 321.561 107.679 322.088ZM40.0908 322.793C39.1293 322.027 39.7452 320.44 40.7632 321.953C41.1529 322.958 40.5119 323.13 40.0908 322.793ZM59.4843 282.183C60.3138 281.865 61.3193 283.262 60.4207 283.231C59.987 283.219 59.258 282.673 59.4843 282.183ZM52.9109 313.209C52.7852 312.192 54.8653 311.695 54.6076 312.467C54.218 313.613 53.0051 313.963 52.9109 313.209ZM155.364 231.916C155.063 231.444 155.88 230.856 156.288 231.432C156.709 232.026 155.741 232.51 155.364 231.916ZM34.0893 283.029C35.189 282.961 34.0516 284.475 33.2346 284.402C32.2919 284.322 33.0209 283.096 34.0893 283.029ZM123.716 295.046C123.509 295.328 122.422 295.021 123.025 294.225C123.195 294.267 123.421 294.274 123.578 294.378C123.817 294.537 123.861 294.856 123.723 295.04L123.716 295.046ZM146.328 255.227C146.17 255.325 146.032 255.245 145.988 255.086C145.963 255.006 146.032 254.896 146.089 254.706C146.252 254.822 146.686 255.006 146.334 255.233L146.328 255.227ZM87.1982 282.876C87.701 283.819 86.4441 284.8 86.287 284.083C86.0796 283.164 86.928 282.373 87.1982 282.876ZM69.357 299.74C69.2125 299.678 69.0679 299.617 68.8417 299.525C68.9548 299.347 69.0365 298.937 69.4764 299.421C69.5141 299.464 69.401 299.629 69.357 299.74ZM84.2509 310.549C84.0498 311.07 84.1818 310.948 83.6162 310.843C83.9115 310.323 83.7481 310.378 84.2509 310.549ZM143.914 260.637C144.329 260.711 143.996 261.557 143.349 261.489C142.947 261.446 143.267 260.527 143.914 260.637ZM165.947 266.343C163.735 266.422 163.723 264.247 165.111 264.357C166.733 264.48 167.267 266.294 165.947 266.343ZM147.371 282.208C147.264 281.546 147.666 281.57 147.17 280.982C146.717 280.449 147.452 279.799 147.855 280.112C148.282 280.449 147.911 280.945 147.899 281.209C147.855 281.981 148.244 282.091 148.722 282.71C149.306 283.464 147.566 283.372 147.377 282.208H147.371ZM90.0011 287.968C89.5109 289.095 89.0207 287.919 89.5611 287.858C89.6805 287.845 89.8125 287.913 90.0011 287.968ZM164.257 281.95C163.352 282.373 163.182 282.251 163.377 283.035C163.415 283.188 163.415 283.311 163.39 283.415C163.157 283.501 162.918 283.58 162.692 283.672C162.692 283.672 162.686 283.672 162.686 283.666C161.768 282.569 161.642 282.22 161.806 281.999C162.623 280.878 161.963 279.806 162.868 280.112C164.841 280.78 164.753 281.724 164.263 281.95H164.257ZM51.6163 217.233C50.881 216.896 50.9753 215.469 52.0436 216.541C52.1253 217.013 52.0562 217.436 51.6163 217.233ZM77.1998 230.421C77.9665 230.758 78.2493 230.151 78.6138 230.654C78.7646 230.856 78.3185 231.199 78.2116 231.113C77.5706 230.623 76.8291 231.469 76.7159 230.935C76.6594 230.672 76.8605 230.274 77.1998 230.427V230.421ZM148.464 223.435C149.03 223.631 149.074 224.005 148.904 224.366C148.565 225.114 147.628 224.017 148.464 223.435ZM7.20487 291.951C7.95899 291.878 8.4366 292.503 8.04069 292.754C7.01006 293.397 6.11768 292.061 7.20487 291.951ZM56.5809 269.431C56.5495 269.406 56.6123 269.253 56.6563 269.076C56.8134 269.155 56.9517 269.192 57.0271 269.278C57.0774 269.333 56.9894 269.725 56.5872 269.425L56.5809 269.431ZM53.2628 269.75C54.5762 269.406 54.1363 271.533 53.2251 270.614C52.9109 270.301 52.8417 269.86 53.2628 269.75ZM83.7858 250.502C84.4331 250.796 84.0372 251.115 83.8738 251.151C83.4339 251.256 83.2202 250.716 83.7858 250.502ZM60.1693 268.463C60.4018 269.076 59.5534 269.388 59.3963 268.806C59.2455 268.242 59.9807 267.973 60.1693 268.463ZM89.7496 239.423C90.1644 239.03 90.6169 240.569 89.8942 240.379C89.5046 240.281 89.3663 239.784 89.7496 239.423ZM11.1514 272.997C12.3455 273.929 13.8474 276.454 12.3266 276.282C11.4216 276.184 9.66833 275.541 9.91971 274.744C10.2025 273.868 10.5544 272.532 11.1514 272.997ZM25.0398 234.159C25.4232 233.546 26.5418 233.613 26.5418 234.588C26.5418 236.61 24.2794 235.378 25.0398 234.159ZM93.9539 263.989C93.1181 263.922 92.8353 262.874 94.2304 262.482C95.5124 262.12 95.2799 264.1 93.9539 263.989ZM10.7932 312.002C11.3902 311.45 11.9244 312.185 12.1946 312.473C13.4389 315.133 9.56149 313.141 10.7932 312.002ZM96.4048 305.678C97.3034 305.304 97.2909 307.406 96.0592 306.725C95.8518 306.37 96.034 305.831 96.4048 305.678ZM40.9203 301.161C41.6305 300.928 42.3217 302.099 41.5111 302.473C40.7255 302.834 40.2605 301.376 40.9203 301.161ZM133.514 276.968C133.677 276.95 133.847 277.017 134.123 277.073C134.01 277.299 133.973 277.495 133.853 277.575C133.42 277.869 133.13 277.011 133.514 276.968ZM68.3138 274.664C68.2132 274.848 68.1755 274.995 68.0813 275.075C67.6728 275.443 67.3334 274.621 67.8425 274.56C67.9681 274.548 68.1064 274.615 68.3138 274.664ZM79.7136 268.371C79.833 268.328 79.9712 268.359 80.2226 268.353C79.7764 269.333 79.3302 268.512 79.7136 268.371ZM74.0514 263.07C73.9446 263.187 73.8754 263.309 73.7749 263.358C73.7309 263.383 73.5298 263.242 73.5424 263.199C73.6366 262.715 73.8189 262.923 74.0577 263.07H74.0514ZM79.28 213.348C78.7835 212.441 80.1409 211.761 80.6562 212.625C81.1087 213.385 79.7262 214.169 79.28 213.348ZM111.601 414.866C111.286 414.076 113.046 413.861 112.43 414.928C112.355 415.063 111.77 415.295 111.601 414.866ZM52.2447 250.551C52.2636 249.822 52.2636 249.099 52.3955 248.7C52.9297 247.113 54.8527 247.799 54.7396 248.731C54.5888 249.944 53.5644 249.595 53.8912 250.355C54.1049 250.851 54.35 251.268 53.6587 251.519C52.8355 251.819 52.2196 251.403 52.2384 250.551H52.2447ZM110.677 229.79C111.418 230.482 110.519 230.531 110.513 230.12C110.513 230.035 110.595 229.949 110.677 229.79ZM131.182 222.595C131.616 222.939 131.616 222.767 131.377 223.233C130.912 222.988 131 223.128 131.182 222.595ZM70.1614 286.473C70.2996 285.854 71.3491 285.554 71.8456 286.215C72.694 287.361 69.9917 287.226 70.1614 286.473ZM68.672 260.736C68.4646 261.373 68.119 261.452 67.8048 261.195C67.1638 260.668 68.9485 259.902 68.672 260.736ZM156.69 211.375C157.155 211.608 157.099 211.418 157.25 212.092C157.262 212.16 156.615 212.27 156.546 211.816C156.527 211.7 156.621 211.559 156.684 211.375H156.69ZM130.906 197.9C131.861 197.434 132.433 198.317 131.943 198.525C131.132 198.868 130.441 198.108 130.906 197.9ZM166.94 252.156C167.135 253.59 165.721 253.511 165.721 252.585C165.721 252.107 166.525 251.262 166.94 252.156ZM191.217 211.118C190.902 212.239 190.632 212.215 190.902 212.637C191.041 212.846 190.129 213.924 190.211 211.283C190.236 210.56 191.097 211.069 191.217 211.118ZM121.988 238.381C121.982 238.222 122.064 238.062 122.127 237.823C123.277 238.393 122.013 238.828 121.988 238.381ZM117.288 240.323C117.225 240.44 117.193 240.593 117.093 240.654C116.923 240.771 116.665 240.685 116.647 240.52C116.634 240.409 116.722 240.287 116.797 240.091C117.005 240.189 117.143 240.256 117.281 240.323H117.288ZM126.865 236.463C127.405 236.169 127.588 237.149 127.022 237.333C126.582 237.474 126.381 236.726 126.865 236.463ZM184.719 237.161C184.216 236.328 183.204 236.402 183.55 235.654C183.82 235.053 184.618 235.317 184.605 235.764C184.587 236.641 185.158 236.42 185.152 236.867C185.152 237.223 184.75 237.21 184.719 237.161ZM64.1095 266.281C64.4238 266.759 63.6194 267.249 63.3177 266.643C63.0726 266.153 63.8142 265.828 64.1095 266.281ZM136.411 227.761C136.128 227.921 136.134 227.007 136.669 226.916C136.788 226.897 137.649 227.075 136.411 227.761ZM139.094 221.21C139.182 220.346 140.169 220.536 140.125 221.308C140.081 222.16 138.987 222.264 139.094 221.21ZM115.509 233.662C114.805 233.828 114.956 232.406 115.427 232.755C115.817 233.043 115.767 233.601 115.509 233.662ZM101.175 209.377C100.075 210.211 99.0002 204.677 101.275 208.452C101.501 208.826 101.545 209.096 101.175 209.377ZM63.4623 225.126C63.2738 224.832 63.8079 224.348 64.2227 224.434C65.203 224.642 63.8959 225.8 63.4623 225.126ZM100.471 251.348C99.8046 250.097 102.199 250.036 102.13 251.734C102.092 252.555 101.043 252.408 100.471 251.348ZM130.321 221.21C129.976 221.492 129.435 220.935 129.875 220.61C130.246 220.34 130.95 220.702 130.321 221.21ZM114.202 236.561C113.882 236.493 113.844 236.022 114.321 235.979C114.78 236.506 114.271 236.573 114.202 236.561ZM36.1254 252.904C36.5967 253.793 35.3336 254.24 34.8874 253.345C34.5355 252.634 35.7295 252.156 36.1254 252.904ZM72.1473 199.714C71.5125 199.279 71.9524 197.992 72.65 198.304C73.5675 198.721 72.8511 200.192 72.1473 199.714ZM112.524 274.162C112.128 274.321 111.757 273.61 112.486 273.322C113.027 273.702 112.801 274.051 112.524 274.162ZM107.421 187.311C106.749 186.189 108.76 184.835 108.728 185.816C108.697 186.857 107.899 188.107 107.421 187.311ZM59.3837 240.262C58.9627 240.789 58.705 240.421 58.6987 240.213C58.6862 239.864 59.2329 239.754 59.3837 240.262Z" fill="#D93339"/>
<path d="M42.0079 474.44C42.0079 474.44 44.5623 463.379 49.2068 462.012C53.8416 460.645 59.1634 455.667 93.1262 458.88C127.089 462.094 133.262 483.755 135.662 500.754C138.061 517.754 119.88 548.413 108.734 554.667C97.5868 560.922 62.6951 567.467 45.1525 556.813L42.0175 474.44H42.0079Z" fill="#DB3339"/>
<path d="M80.9344 510.141C79.2605 536.727 74.6643 559.963 50.9098 558.361C36.2506 557.374 22.7333 534.093 24.2911 507.498C25.907 480.062 41.2725 459.631 55.9703 459.631C70.6681 459.631 83.0825 476.043 80.9344 510.141ZM93.9002 446.886L106.518 421.514L92.4585 416.454L85.4627 444.732L63.2176 435.445L78.4767 448.09L58.428 455.513L81.96 459.785L84.0017 474.585L95.3226 459.722L119.425 470.34L102.222 453.024L118.139 445.302L93.8906 446.886H93.9002Z" fill="#A13137"/>
<path d="M116.436 477.011C116.436 477.011 124.331 484.651 127.737 494.11C131.143 503.569 118.69 520.868 118.69 520.868C118.69 520.868 127.311 490.408 116.436 477.011Z" fill="white"/>
<path d="M45.6364 501.46C45.6364 501.46 44.7752 485.158 44.5236 479.953C44.272 474.748 43.9043 471.978 45.0751 470.467C46.2459 468.964 47.8522 467.579 47.8522 467.579C47.8522 467.579 52.6708 465.732 54.8963 466.076C57.1217 466.42 57.1218 470.123 57.1218 470.123C57.1218 470.123 51.5387 499.958 52.6611 500.537C53.7835 501.116 55.1479 499.034 58.8538 495.568C62.5597 492.101 69.4877 484.814 71.5874 484.352C73.6871 483.891 75.4191 485.158 76.0384 487.358C76.6576 489.557 77.4027 496.373 76.8995 498.229C76.3964 500.084 75.1675 502.854 75.1675 502.854C75.1675 502.854 55.1479 505.977 54.6447 506.095C54.1416 506.213 54.0254 508.901 54.6447 509.064C55.264 509.227 72.942 516.26 73.6774 517.365C74.4128 518.469 75.1578 524.253 73.929 527.141C72.6905 530.028 71.5777 533.613 70.2231 533.73C68.8684 533.848 65.7721 530.264 65.7721 530.264C65.7721 530.264 55.264 518.587 54.1512 519.166C53.0385 519.745 64.0401 539.406 65.0271 542.411C66.014 545.416 66.014 548.078 63.6627 549.924C61.3115 551.771 54.5189 553.047 54.5189 553.047L49.7003 552.006C49.7003 552.006 49.4487 524.253 48.094 522.515C46.7394 520.777 40.9241 542.638 38.9502 541.941C36.9763 541.244 33.1446 536.618 32.2738 531.069C31.4126 525.52 33.3865 523.954 34.6251 523.176C35.8636 522.397 43.9914 517.356 43.9914 517.356C43.9914 517.356 44.0108 515.455 42.4046 515.111C40.7983 514.767 29.9225 517.998 29.9225 517.998C29.9225 517.998 28.5582 516.84 28.684 514.875C28.8098 512.911 27.939 506.783 29.0517 502.963C30.1644 499.143 33.3769 501.687 36.3474 502.728C39.3179 503.769 42.2788 507.471 42.4046 505.968C42.5303 504.466 34.3735 496.373 34.1219 493.594C33.8703 490.815 34.6154 485.266 36.2216 482.841C37.8278 480.415 39.0663 483.185 40.6726 488.045C42.2788 492.906 45.617 501.46 45.617 501.46H45.6364Z" fill="#E6BB95"/>
<path d="M89.3429 509.408C89.8654 510.023 90.533 509.399 90.204 508.901C89.5848 507.978 88.7429 508.702 89.3429 509.408ZM137.007 493.16C138.352 492.707 139.677 493.703 139 494.373C137.655 495.712 135.642 493.621 137.007 493.16ZM65.9935 300.525C64.7066 302.091 64.5131 301.521 63.0423 299.511C61.9489 296.045 67.2514 298.986 65.9935 300.525ZM106.518 501.886C106.334 501.56 107.011 501.379 107.263 501.659C107.34 501.741 107.185 502.003 107.089 502.357C106.798 502.13 106.595 502.031 106.518 501.886ZM86.5465 516.079C86.382 514.866 88.4236 515.762 87.3012 516.459C87.0303 516.631 86.5852 516.405 86.5465 516.079ZM81.7956 516.233C81.2537 516.251 81.1763 515.427 81.7956 515.255C82.5213 515.047 82.4632 516.215 81.7956 516.233ZM132.178 478.595C131.714 477.898 132.972 477.029 133.601 477.88C134.249 478.758 132.759 479.473 132.178 478.595ZM83.4502 571.848C83.1309 572.265 81.4569 571.812 82.3858 570.635C82.6471 570.699 82.9954 570.708 83.2373 570.862C83.605 571.097 83.6727 571.568 83.4599 571.839L83.4502 571.848ZM118.264 513.029C118.022 513.173 117.81 513.056 117.742 512.821C117.703 512.703 117.81 512.54 117.897 512.259C118.148 512.431 118.816 512.703 118.274 513.038L118.264 513.029ZM27.2229 553.871C27.997 555.265 26.0618 556.713 25.8199 555.654C25.5006 554.296 26.8069 553.129 27.2229 553.871ZM114.549 521.022C115.187 521.13 114.675 522.379 113.678 522.28C113.059 522.216 113.552 520.859 114.549 521.022ZM148.473 529.449C145.067 529.567 145.048 526.353 147.186 526.516C149.682 526.697 150.505 529.377 148.473 529.449ZM119.871 552.884C119.706 551.907 120.325 551.943 119.561 551.074C118.864 550.286 119.996 549.327 120.616 549.789C121.274 550.286 120.703 551.019 120.683 551.409C120.616 552.549 121.216 552.712 121.951 553.627C122.851 554.74 120.171 554.604 119.88 552.884H119.871ZM31.5384 561.393C30.7837 563.059 30.029 561.321 30.8611 561.23C31.045 561.212 31.2481 561.312 31.5384 561.393ZM145.87 552.504C144.477 553.129 144.215 552.948 144.515 554.106C144.573 554.333 144.573 554.514 144.535 554.667C144.177 554.794 143.809 554.912 143.461 555.048C143.461 555.048 143.451 555.048 143.451 555.039C142.038 553.418 141.845 552.902 142.096 552.576C143.354 550.92 142.338 549.336 143.732 549.789C146.77 550.775 146.634 552.169 145.88 552.504H145.87ZM11.8284 476.387C13.0089 476.884 13.4443 475.988 14.0055 476.731C14.2377 477.029 13.5507 477.536 13.3863 477.409C12.3993 476.685 11.2575 477.934 11.0834 477.147C10.9963 476.758 11.3059 476.169 11.8284 476.396V476.387ZM121.554 466.067C122.425 466.357 122.493 466.909 122.232 467.443C121.709 468.548 120.267 466.927 121.554 466.067ZM21.9689 506.004C22.9655 506.439 22.3559 506.91 22.1043 506.964C21.427 507.118 21.098 506.321 21.9689 506.004ZM31.1514 489.639C31.79 489.059 32.4867 491.331 31.3739 491.051C30.774 490.906 30.5612 490.173 31.1514 489.639ZM37.6246 525.937C36.3377 525.837 35.9023 524.289 38.0504 523.71C40.0243 523.176 39.6663 526.1 37.6246 525.937ZM98.535 545.1C98.7866 545.072 99.0479 545.172 99.4736 545.254C99.2995 545.588 99.2414 545.878 99.0575 545.996C98.3899 546.43 97.9448 545.163 98.535 545.1ZM15.6988 532.4C15.8827 532.336 16.0955 532.382 16.4826 532.373C15.7956 533.821 15.1086 532.608 15.6988 532.4ZM15.0312 451.123C14.2668 449.783 16.3568 448.778 17.1502 450.055C17.8469 451.177 15.7182 452.336 15.0312 451.123ZM63.3725 475.409C64.5142 476.432 63.1306 476.504 63.1209 475.898C63.1209 475.771 63.2467 475.644 63.3725 475.409ZM94.9453 464.782C95.6129 465.289 95.6129 465.035 95.2452 465.723C94.5292 465.361 94.6646 465.57 94.9453 464.782ZM134.22 448.208C134.936 448.552 134.849 448.271 135.081 449.267C135.101 449.367 134.104 449.53 133.998 448.86C133.969 448.688 134.114 448.48 134.21 448.208H134.22ZM94.5195 428.303C95.9903 427.615 96.8708 428.918 96.1161 429.226C94.8678 429.733 93.8035 428.611 94.5195 428.303ZM150.002 508.448C150.302 510.567 148.125 510.449 148.125 509.082C148.125 508.376 149.363 507.127 150.002 508.448ZM80.7893 488.1C80.7796 487.864 80.9054 487.629 81.0021 487.276C82.7728 488.118 80.828 488.76 80.7893 488.1ZM73.5516 490.969C73.4549 491.141 73.4065 491.367 73.2517 491.458C72.9904 491.63 72.5937 491.503 72.5647 491.259C72.5453 491.096 72.6808 490.915 72.7969 490.625C73.1162 490.77 73.3291 490.87 73.542 490.969H73.5516ZM88.2978 485.266C89.13 484.832 89.4106 486.28 88.5397 486.552C87.8624 486.76 87.5528 485.656 88.2978 485.266ZM102.996 472.413C102.56 472.648 102.57 471.299 103.392 471.164C103.576 471.136 104.902 471.399 102.996 472.413ZM107.127 462.736C107.263 461.46 108.782 461.741 108.714 462.881C108.646 464.139 106.963 464.293 107.127 462.736ZM70.8133 481.13C69.7296 481.374 69.9618 479.274 70.6875 479.79C71.2875 480.216 71.21 481.039 70.8133 481.13ZM48.7424 445.257C47.0491 446.488 45.3945 438.314 48.8972 443.89C49.2455 444.442 49.3132 444.841 48.7424 445.257ZM47.6586 507.254C46.633 505.407 50.3195 505.316 50.2131 507.824C50.155 509.037 48.5392 508.82 47.6586 507.254ZM93.6196 462.736C93.0875 463.153 92.2553 462.329 92.9326 461.849C93.5035 461.451 94.5872 461.985 93.6196 462.736ZM68.8007 485.411C68.3072 485.312 68.2492 484.615 68.9845 484.551C69.6909 485.33 68.9071 485.429 68.8007 485.411ZM66.2172 540.954C65.6076 541.189 65.0367 540.139 66.1592 539.714C66.9913 540.275 66.643 540.791 66.2172 540.954ZM16.2298 323.345C15.1945 321.689 18.2908 319.688 18.2424 321.136C18.194 322.675 16.9652 324.522 16.2298 323.345Z" fill="#E5BA94"/>
<path d="M129.605 503.352C130.127 503.968 130.795 503.343 130.466 502.845C129.847 501.922 129.005 502.646 129.605 503.352ZM106.255 294.47C104.968 296.035 104.775 295.465 103.304 293.456C102.211 289.989 107.513 292.931 106.255 294.47ZM146.78 495.83C146.596 495.504 147.273 495.323 147.525 495.604C147.602 495.685 147.447 495.948 147.35 496.301C147.06 496.074 146.857 495.975 146.78 495.83ZM126.808 510.032C126.644 508.82 128.685 509.716 127.563 510.413C127.292 510.585 126.847 510.358 126.808 510.032ZM122.057 510.186C121.515 510.204 121.438 509.381 122.057 509.209C122.783 509.001 122.725 510.168 122.057 510.186ZM47.3683 525.928C47.7747 526.172 48.0844 526.29 48.2779 526.498C48.6456 526.905 46.7588 527.946 47.3683 525.928ZM20.1014 547.806C20.3626 548.63 19.0951 548.793 18.8919 548.041C18.6597 547.191 19.8982 547.163 20.1014 547.806ZM24.8136 546.792C26.0908 546.322 27.639 548.386 26.2553 548.34C25.5877 548.322 24.4653 547.516 24.8136 546.792ZM123.712 565.793C123.393 566.209 121.719 565.756 122.648 564.58C122.909 564.643 123.257 564.652 123.499 564.806C123.867 565.041 123.934 565.512 123.722 565.784L123.712 565.793ZM158.526 506.973C158.284 507.118 158.071 507 158.004 506.765C157.965 506.647 158.071 506.484 158.158 506.204C158.41 506.376 159.078 506.647 158.536 506.982L158.526 506.973ZM67.4848 547.815C68.2589 549.209 66.3236 550.657 66.0817 549.598C65.7624 548.241 67.0687 547.073 67.4848 547.815ZM154.811 514.966C155.449 515.074 154.936 516.324 153.94 516.224C153.321 516.161 153.814 514.803 154.811 514.966ZM160.132 546.829C159.968 545.851 160.587 545.887 159.823 545.018C159.126 544.231 160.258 543.271 160.877 543.733C161.535 544.231 160.965 544.964 160.945 545.353C160.877 546.494 161.477 546.657 162.213 547.571C163.113 548.684 160.432 548.548 160.142 546.829H160.132ZM71.8003 555.337C71.0455 557.003 70.2908 555.265 71.1229 555.174C71.3068 555.156 71.51 555.256 71.8003 555.337ZM12.6993 450.851C11.5672 450.353 11.7123 448.244 13.3572 449.828C13.483 450.525 13.3766 451.15 12.6993 450.851ZM52.0902 470.331C53.2707 470.829 53.7061 469.933 54.2673 470.675C54.4996 470.974 53.8126 471.48 53.6481 471.354C52.6611 470.63 51.5193 471.879 51.3452 471.091C51.2581 470.702 51.5677 470.114 52.0902 470.34V470.331ZM161.816 460.012C162.687 460.301 162.755 460.853 162.493 461.388C161.971 462.492 160.529 460.872 161.816 460.012ZM20.3433 527.955C20.2949 527.919 20.3917 527.693 20.4594 527.43C20.7013 527.548 20.9142 527.602 21.0303 527.729C21.1077 527.811 20.9722 528.39 20.353 527.946L20.3433 527.955ZM15.2344 528.426C17.2566 527.919 16.5793 531.06 15.1763 529.702C14.6925 529.241 14.5861 528.589 15.2344 528.426ZM62.2307 499.994C63.2273 500.428 62.6177 500.899 62.3661 500.953C61.6888 501.107 61.3598 500.311 62.2307 499.994ZM25.8683 526.525C26.2263 527.43 24.92 527.892 24.6781 527.032C24.4459 526.199 25.578 525.801 25.8683 526.525ZM71.4132 483.628C72.0519 483.049 72.7485 485.321 71.6358 485.04C71.0359 484.895 70.823 484.162 71.4132 483.628ZM77.8865 519.917C76.5996 519.818 76.1641 518.27 78.3122 517.69C80.2861 517.156 79.9281 520.08 77.8865 519.917ZM138.797 539.089C139.048 539.062 139.31 539.162 139.735 539.243C139.561 539.578 139.503 539.868 139.319 539.985C138.652 540.42 138.207 539.153 138.797 539.089ZM38.4084 535.686C38.2536 535.957 38.1955 536.174 38.0504 536.292C37.4214 536.835 36.8989 535.622 37.6827 535.532C37.8762 535.514 38.0891 535.613 38.4084 535.686ZM55.9606 526.389C56.1445 526.326 56.3573 526.371 56.7444 526.362C56.0574 527.811 55.3704 526.597 55.9606 526.389ZM47.2425 518.559C47.0781 518.731 46.9716 518.912 46.8168 518.985C46.7491 519.021 46.4395 518.813 46.4588 518.75C46.6039 518.034 46.8845 518.342 47.2522 518.559H47.2425ZM55.293 445.112C54.5286 443.773 56.6186 442.768 57.412 444.044C58.1087 445.167 55.98 446.325 55.293 445.112ZM13.6669 500.066C13.6959 498.989 13.6959 497.921 13.8991 497.333C14.7215 494.988 17.6824 496.002 17.5082 497.378C17.276 499.17 15.6988 498.654 16.202 499.777C16.5309 500.51 16.9083 501.125 15.8439 501.497C14.5764 501.94 13.6282 501.325 13.6572 500.066H13.6669ZM103.634 469.398C104.776 470.421 103.392 470.494 103.383 469.887C103.383 469.761 103.508 469.634 103.634 469.398ZM135.207 458.772C135.875 459.278 135.875 459.025 135.507 459.713C134.791 459.351 134.926 459.559 135.207 458.772ZM41.2531 553.129C41.466 552.214 43.0819 551.771 43.8463 552.748C45.1525 554.441 40.9919 554.242 41.2531 553.129ZM38.9599 515.111C38.6406 516.052 38.1084 516.17 37.6246 515.79C36.6377 515.011 39.3856 513.88 38.9599 515.111ZM134.781 422.292C136.252 421.604 137.133 422.908 136.378 423.216C135.13 423.723 134.065 422.6 134.781 422.292ZM121.051 482.089C121.041 481.854 121.167 481.619 121.264 481.266C123.035 482.107 121.09 482.75 121.051 482.089ZM113.813 484.959C113.717 485.131 113.668 485.357 113.513 485.448C113.252 485.62 112.856 485.493 112.826 485.248C112.807 485.085 112.943 484.904 113.059 484.615C113.378 484.76 113.591 484.859 113.804 484.959H113.813ZM128.56 479.256C129.392 478.821 129.672 480.27 128.802 480.541C128.124 480.75 127.815 479.645 128.56 479.256ZM31.9351 523.303C32.4189 524.009 31.1804 524.733 30.716 523.837C30.3386 523.113 31.4804 522.633 31.9351 523.303ZM143.257 466.402C142.822 466.638 142.832 465.289 143.654 465.153C143.838 465.126 145.164 465.388 143.257 466.402ZM147.389 456.726C147.525 455.449 149.044 455.73 148.976 456.871C148.908 458.129 147.225 458.283 147.389 456.726ZM111.075 475.119C109.991 475.364 110.224 473.264 110.949 473.78C111.549 474.205 111.472 475.029 111.075 475.119ZM89.0042 439.247C87.3109 440.478 85.6563 432.304 89.159 437.88C89.5073 438.432 89.5751 438.83 89.0042 439.247ZM30.9385 462.51C30.6482 462.075 31.4707 461.36 32.1093 461.487C33.6187 461.795 31.6061 463.506 30.9385 462.51ZM87.9205 501.243C86.8948 499.397 90.5814 499.306 90.4749 501.813C90.4169 503.026 88.801 502.809 87.9205 501.243ZM133.881 456.726C133.349 457.142 132.517 456.318 133.194 455.839C133.765 455.44 134.849 455.974 133.881 456.726ZM109.063 479.401C108.569 479.301 108.511 478.604 109.246 478.541C109.953 479.319 109.169 479.419 109.063 479.401ZM44.3107 424.972C43.3334 424.329 44.0108 422.428 45.0848 422.89C46.4975 423.505 45.3944 425.678 44.3107 424.972ZM106.479 534.943C105.869 535.179 105.299 534.129 106.421 533.703C107.253 534.264 106.905 534.78 106.479 534.943ZM56.4916 317.335C55.4563 315.678 58.5526 313.678 58.5042 315.126C58.4559 316.665 57.227 318.511 56.4916 317.335ZM24.6588 484.868C24.0105 485.647 23.6138 485.104 23.6041 484.796C23.5848 484.28 24.4266 484.117 24.6588 484.868Z" fill="#D93339"/>
<path d="M450.225 94.9885C427.164 105.084 407.036 106.676 392.362 78.2773C383.306 60.7462 393.399 34.4414 416.377 24.2029C440.091 13.646 467.291 22.2922 477.196 39.4173C487.101 56.5425 479.793 82.0351 450.225 94.9805V94.9885Z" fill="#A13137"/>
<path d="M448.118 89.9727C425.058 100.068 404.929 101.66 390.255 73.2616C381.199 55.7304 391.292 29.4257 414.271 19.1872C437.984 8.6303 465.184 17.2765 475.089 34.4016C484.994 51.5267 477.686 77.0194 448.118 89.9648V89.9727Z" fill="#DB3339"/>
<path d="M434.073 42.1004C434.073 42.1004 446.934 33.701 451.066 31.0578C455.189 28.4146 457.231 26.7188 459.264 27.4114C461.297 28.1041 463.519 29.3381 463.519 29.3381C463.519 29.3381 468.296 34.115 469.504 36.8697C470.713 39.6243 467.667 41.2962 467.667 41.2962C467.667 41.2962 439.299 48.3183 439.576 49.8867C439.854 51.4551 442.492 52.1 447.848 54.8467C453.205 57.5934 463.878 62.3544 465.674 64.5995C467.471 66.8367 467.585 69.4321 466.189 71.1438C464.792 72.8635 459.664 76.8204 457.802 77.0831C455.941 77.3458 452.821 77.1627 452.821 77.1627C452.821 77.1627 436.759 55.2448 436.326 54.7193C435.894 54.1938 433.591 55.2766 433.877 56.0648C434.162 56.853 440.271 80.6419 439.854 82.0113C439.438 83.3806 435.175 86.8598 431.958 86.7324C428.74 86.605 425.033 86.9314 424.021 85.4028C423.008 83.8742 423.882 78.6435 423.882 78.6435C423.882 78.6435 426.438 61.1044 425.213 60.0694C423.988 59.0344 415.185 80.7613 413.372 83.2771C411.56 85.7929 409.363 86.9951 406.26 85.1003C403.157 83.2055 397.523 75.857 397.523 75.857L395.13 69.7665C395.13 69.7665 417.855 56.9007 418.37 54.5282C418.884 52.1557 396.943 55.2925 396.183 52.6732C395.424 50.0539 396.657 43.4936 400.65 39.9667C404.643 36.4397 407.264 38.04 408.742 39.1228C410.22 40.2135 419.856 47.4027 419.856 47.4027C419.856 47.4027 421.44 46.5667 420.64 44.5366C419.84 42.5064 409.845 31.2966 409.845 31.2966C409.845 31.2966 409.886 29.1868 411.584 28.4385C413.283 27.6901 417.757 23.9084 421.661 23.4705C425.556 23.0406 425.621 27.9369 426.764 31.8619C427.907 35.7869 426.854 40.9221 428.177 40.3886C429.5 39.8552 430.684 26.679 432.799 25.1265C434.914 23.574 440.001 21.926 443.088 22.6982C446.174 23.4705 444.721 26.1694 441.797 30.2457C438.874 34.322 434.064 42.0844 434.064 42.0844L434.073 42.1004Z" fill="#E6BB95"/>
<path d="M473.775 52.6812C474.216 53.2226 474.779 52.6732 474.501 52.2353C473.979 51.4232 473.268 52.0602 473.775 52.6812ZM342.077 112.225C341.219 112.368 340.607 111.453 341.228 111.102C342.64 110.33 343.694 111.954 342.077 112.225ZM471.415 58.5567C471.276 57.4899 472.999 58.2781 472.052 58.8911C471.823 59.0424 471.447 58.8433 471.415 58.5567ZM467.405 58.6921C466.948 58.708 466.883 57.9835 467.405 57.8322C468.018 57.6491 467.969 58.6761 467.405 58.6921ZM404.374 72.5371C404.717 72.752 404.978 72.8555 405.141 73.0386C405.452 73.3969 403.859 74.3125 404.374 72.5371ZM388.361 116.819C388.279 116.66 388.361 116.421 388.385 116.07C388.712 116.206 388.957 116.238 389.087 116.381C389.324 116.636 388.63 117.344 388.361 116.819ZM381.362 91.78C381.583 92.5045 380.513 92.6478 380.342 91.987C380.146 91.2386 381.191 91.2147 381.362 91.78ZM316.42 52.705C315.856 51.4392 316.812 51.7895 316.959 50.1096C317.073 48.8039 318.894 49.2577 318.363 50.1972C317.996 50.8341 317.432 50.8819 318.208 51.3118C320.65 52.6493 317.416 54.9422 316.428 52.705H316.42ZM368.73 65.9529C368.607 66.1918 368.567 66.3829 368.452 66.4784C367.946 66.9083 367.505 65.8415 368.142 65.7858C368.297 65.7698 368.469 65.8733 368.73 65.9529ZM510.898 215.818C511.388 216.654 509.975 217.434 509.705 216.518C509.526 215.897 510.489 215.133 510.898 215.818ZM423.075 216.733C421.825 215.738 422.625 213.676 423.948 215.643C424.455 216.948 423.622 217.171 423.075 216.733ZM385.339 90.8883C386.417 90.4743 387.724 92.2895 386.556 92.2497C385.992 92.2338 385.045 91.5252 385.339 90.8883ZM376.798 131.197C376.634 129.876 379.337 129.231 379.002 130.234C378.496 131.723 376.92 132.177 376.798 131.197ZM352.341 91.987C353.77 91.8994 352.292 93.8659 351.231 93.7704C350.006 93.6669 350.953 92.0746 352.341 91.987ZM468.802 107.599C468.532 107.966 467.12 107.568 467.904 106.533C468.124 106.588 468.418 106.596 468.622 106.732C468.932 106.939 468.99 107.353 468.81 107.591L468.802 107.599ZM421.35 91.788C422.004 93.014 420.37 94.2879 420.166 93.3564C419.897 92.1621 420.999 91.1351 421.35 91.788ZM398.168 113.698C397.98 113.618 397.792 113.539 397.498 113.419C397.645 113.188 397.751 112.655 398.323 113.284C398.372 113.34 398.225 113.555 398.168 113.698ZM417.521 127.742C417.259 128.419 417.431 128.259 416.696 128.124C417.08 127.447 416.867 127.519 417.521 127.742ZM424.992 98.4039C424.355 99.8689 423.718 98.3403 424.421 98.2606C424.576 98.2447 424.747 98.3323 424.992 98.4039ZM375.116 6.50457C374.16 6.06669 374.283 4.21166 375.671 5.60492C375.777 6.21795 375.687 6.7673 375.116 6.50457ZM408.359 23.6377C409.355 24.0756 409.722 23.2874 410.196 23.9402C410.392 24.2029 409.812 24.6488 409.673 24.5373C408.84 23.9004 407.877 24.9991 407.73 24.3064C407.656 23.9641 407.918 23.4466 408.359 23.6456V23.6377ZM317.408 103.579C318.388 103.483 319.008 104.295 318.494 104.622C317.155 105.458 315.995 103.722 317.408 103.579ZM381.567 74.3205C381.526 74.2886 381.607 74.0896 381.665 73.8587C381.869 73.9622 382.048 74.01 382.146 74.1214C382.212 74.1931 382.097 74.7026 381.575 74.3125L381.567 74.3205ZM377.255 74.7344C378.962 74.2886 378.39 77.0512 377.206 75.857C376.798 75.451 376.708 74.8778 377.255 74.7344ZM416.916 49.7274C417.757 50.1096 417.243 50.5236 417.031 50.5714C416.459 50.7067 416.181 50.0061 416.916 49.7274ZM386.229 73.0625C386.531 73.8587 385.429 74.2647 385.225 73.5084C385.029 72.7759 385.984 72.4256 386.229 73.0625ZM424.666 35.3331C425.205 34.8236 425.793 36.8219 424.853 36.5751C424.347 36.4477 424.168 35.8028 424.666 35.3331ZM322.536 78.9541C324.088 80.1642 326.039 83.4443 324.063 83.2214C322.887 83.094 320.609 82.258 320.936 81.2231C321.303 80.0846 321.76 78.349 322.536 78.9541ZM340.582 28.4942C341.081 27.698 342.534 27.7856 342.534 29.0515C342.534 31.6788 339.594 30.0785 340.582 28.4942ZM430.129 67.2507C429.042 67.1631 428.675 65.8017 430.488 65.2921C432.154 64.8224 431.852 67.394 430.129 67.2507ZM322.071 129.629C322.846 128.912 323.54 129.868 323.892 130.242C325.508 133.697 320.47 131.11 322.071 129.629ZM433.313 121.413C434.481 120.927 434.465 123.658 432.864 122.774C432.595 122.312 432.831 121.612 433.313 121.413ZM361.217 115.545C362.14 115.242 363.038 116.763 361.985 117.249C360.964 117.718 360.36 115.824 361.217 115.545ZM481.532 84.1131C481.744 84.0892 481.965 84.1768 482.324 84.2484C482.177 84.543 482.128 84.7978 481.973 84.9013C481.41 85.2834 481.034 84.1688 481.532 84.1131ZM396.812 81.1196C396.681 81.3584 396.633 81.5495 396.51 81.653C395.979 82.1307 395.538 81.0638 396.2 80.9842C396.363 80.9683 396.543 81.0559 396.812 81.1196ZM411.625 72.9431C411.78 72.8874 411.96 72.9272 412.286 72.9192C411.707 74.1931 411.127 73.1262 411.625 72.9431ZM404.267 66.0564C404.129 66.2077 404.039 66.3669 403.908 66.4306C403.851 66.4625 403.59 66.2794 403.606 66.2236C403.729 65.5947 403.965 65.8654 404.276 66.0564H404.267ZM411.061 1.45697C410.416 0.278675 412.18 -0.605048 412.85 0.517521C413.438 1.50474 411.641 2.52381 411.061 1.45697ZM461.25 220.316C460.841 219.289 463.128 219.01 462.328 220.396C462.23 220.571 461.47 220.873 461.25 220.316ZM375.932 49.7911C375.957 48.8437 375.957 47.9042 376.128 47.3868C376.822 45.3247 379.321 46.2164 379.174 47.4266C378.978 49.0029 377.647 48.5491 378.072 49.5364C378.349 50.1812 378.668 50.7226 377.77 51.049C376.7 51.4392 375.9 50.8978 375.924 49.7911H375.932ZM451.858 22.8176C452.821 23.7173 451.654 23.781 451.645 23.2476C451.645 23.1361 451.752 23.0246 451.858 22.8176ZM478.503 13.4709C479.066 13.9167 479.066 13.6938 478.756 14.2988C478.151 13.9804 478.266 14.1635 478.503 13.4709ZM399.213 96.4613C399.393 95.6572 400.756 95.2671 401.401 96.1269C402.504 97.6157 398.992 97.4406 399.213 96.4613ZM397.278 63.0231C397.008 63.8511 396.559 63.9546 396.151 63.6202C395.318 62.9355 397.637 61.9404 397.278 63.0231ZM466.556 33.9796C466.548 33.7726 466.654 33.5656 466.736 33.2551C468.23 33.9955 466.589 34.5608 466.556 33.9796ZM460.448 36.5034C460.366 36.6547 460.326 36.8537 460.195 36.9334C459.974 37.0846 459.64 36.9732 459.615 36.7582C459.599 36.6149 459.713 36.4557 459.811 36.2009C460.081 36.3283 460.26 36.4158 460.44 36.5034H460.448ZM472.893 31.4877C473.595 31.1055 473.832 32.3794 473.097 32.6182C472.525 32.8013 472.264 31.83 472.893 31.4877ZM391.349 70.2282C391.758 70.8492 390.712 71.4862 390.32 70.698C390.002 70.0611 390.965 69.6391 391.349 70.2282ZM485.297 20.1824C484.929 20.3894 484.937 19.2031 485.631 19.0837C485.786 19.0598 486.905 19.2907 485.297 20.1824ZM458.137 27.8493C457.223 28.0643 457.419 26.2172 458.031 26.671C458.537 27.0452 458.472 27.7697 458.137 27.8493ZM390.508 16.7589C390.263 16.3768 390.957 15.7478 391.496 15.8593C392.77 16.13 391.072 17.6347 390.508 16.7589ZM438.597 50.8261C437.731 49.202 440.842 49.1224 440.752 51.3277C440.703 52.3945 439.34 52.2035 438.597 50.8261ZM477.384 11.6716C476.935 12.0378 476.233 11.3133 476.804 10.8913C477.286 10.541 478.2 11.0108 477.384 11.6716ZM456.439 31.6151C456.022 31.5275 455.973 30.9145 456.594 30.8587C457.19 31.5434 456.529 31.631 456.439 31.6151ZM354.987 52.8483C355.599 54.0028 353.958 54.584 353.378 53.4216C352.921 52.4981 354.473 51.877 354.987 52.8483ZM454.259 80.4667C453.744 80.6737 453.262 79.7502 454.209 79.376C454.912 79.8696 454.618 80.3234 454.259 80.4667ZM385.209 36.4238C384.661 37.1085 384.327 36.6308 384.318 36.3601C384.302 35.9063 385.013 35.763 385.209 36.4238Z" fill="#E5BA94"/>
<path d="M423.704 270.362C424.226 272.541 426.817 273.813 428.965 273.073C429.976 272.698 431.085 272.211 431.918 271.684C433.032 271.001 433.974 270.188 434.405 269.146L434.239 269.959C434.463 267.886 433.957 266.256 432.688 264.805C430.763 262.547 424.761 260.284 423.118 263.925C422.698 264.872 422.336 266.026 422.388 267.118C422.474 268.244 423.503 269.314 423.698 270.362H423.704ZM412.732 272.558C412.261 270.424 413.088 268.272 413.582 266.256C414.099 263.135 415.087 259.814 417.442 257.287C423.411 251.159 433.859 252.923 439.506 258.475C442.924 261.679 444.458 266.827 443.831 271.32C442.993 274.804 440.574 277.728 437.817 279.739C435.215 281.599 432.521 283.129 429.35 283.666C421.906 285.067 414.082 279.857 412.738 272.563L412.732 272.558Z" fill="#A13137"/>
<path d="M441.178 268.894C441.333 269.085 441.528 268.894 441.43 268.737C441.247 268.452 441 268.676 441.178 268.894ZM455.326 263.864C455.722 263.724 456.118 264.032 455.917 264.239C455.521 264.654 454.918 264.009 455.326 263.864ZM446.749 231.894C446.37 232.375 446.313 232.202 445.871 231.58C445.549 230.504 447.123 231.418 446.749 231.894ZM446.273 266.564C446.215 266.463 446.422 266.407 446.497 266.497C446.52 266.525 446.474 266.603 446.445 266.71C446.359 266.637 446.301 266.609 446.273 266.564ZM394.85 289.84C394.552 289.89 394.333 289.565 394.551 289.448C395.045 289.173 395.419 289.744 394.85 289.84ZM440.339 270.961C440.293 270.586 440.896 270.86 440.563 271.079C440.483 271.129 440.35 271.062 440.339 270.961ZM438.932 271.012C438.771 271.017 438.748 270.765 438.932 270.709C439.144 270.648 439.127 271.006 438.932 271.012ZM416.765 275.885C416.885 275.958 416.977 275.997 417.034 276.059C417.144 276.182 416.581 276.507 416.765 275.885ZM411.135 291.464C411.106 291.408 411.135 291.324 411.147 291.201C411.262 291.246 411.348 291.263 411.394 291.307C411.48 291.397 411.233 291.643 411.135 291.464ZM408.671 282.652C408.751 282.91 408.372 282.955 408.309 282.725C408.24 282.462 408.608 282.456 408.671 282.652ZM385.826 268.905C385.631 268.463 385.964 268.581 386.016 267.992C386.056 267.533 386.699 267.695 386.51 268.02C386.383 268.244 386.182 268.261 386.452 268.412C387.314 268.883 386.176 269.69 385.826 268.905ZM404.225 273.566C404.185 273.65 404.167 273.717 404.127 273.751C403.949 273.902 403.794 273.527 404.018 273.505C404.075 273.505 404.133 273.538 404.225 273.566ZM370.657 391.993C370.829 392.284 370.33 392.558 370.238 392.239C370.175 392.021 370.514 391.752 370.657 391.993ZM401.198 300.898C400.761 300.545 401.037 299.822 401.502 300.511C401.68 300.971 401.387 301.049 401.198 300.898ZM410.061 282.333C410.44 282.188 410.9 282.826 410.486 282.809C410.285 282.804 409.958 282.552 410.061 282.333ZM407.057 296.512C406.999 296.047 407.953 295.822 407.832 296.17C407.654 296.696 407.103 296.853 407.057 296.512ZM453.884 259.354C453.746 259.136 454.119 258.872 454.303 259.13C454.499 259.399 454.056 259.623 453.884 259.354ZM398.458 282.714C398.963 282.68 398.44 283.375 398.067 283.341C397.636 283.302 397.969 282.742 398.458 282.714ZM439.42 288.204C439.322 288.333 438.828 288.193 439.104 287.829C439.179 287.851 439.282 287.851 439.357 287.901C439.466 287.974 439.483 288.12 439.42 288.204ZM449.754 270.003C449.685 270.048 449.616 270.009 449.599 269.936C449.587 269.897 449.622 269.852 449.645 269.763C449.719 269.819 449.915 269.897 449.754 270.003ZM422.733 282.641C422.963 283.073 422.388 283.521 422.313 283.196C422.222 282.776 422.606 282.412 422.733 282.641ZM414.582 290.349C414.513 290.321 414.45 290.293 414.346 290.254C414.398 290.176 414.438 289.985 414.639 290.204C414.656 290.221 414.605 290.299 414.582 290.349ZM359.956 386.704C359.864 386.94 359.921 386.889 359.663 386.839C359.801 386.598 359.72 386.626 359.956 386.704ZM448.657 272.474C448.846 272.507 448.697 272.894 448.398 272.86C448.214 272.838 448.358 272.418 448.657 272.474ZM458.726 275.079C457.715 275.118 457.709 274.121 458.347 274.171C459.088 274.227 459.329 275.056 458.726 275.079ZM450.236 282.328C450.185 282.025 450.374 282.036 450.144 281.767C449.938 281.521 450.271 281.23 450.455 281.37C450.65 281.526 450.477 281.751 450.472 281.874C450.455 282.227 450.633 282.277 450.851 282.563C451.121 282.91 450.322 282.865 450.236 282.333V282.328ZM424.014 284.96C423.79 285.476 423.566 284.938 423.813 284.91C423.87 284.904 423.928 284.938 424.014 284.96ZM457.951 282.21C457.537 282.406 457.462 282.344 457.549 282.708C457.566 282.776 457.566 282.832 457.554 282.882C457.445 282.921 457.342 282.955 457.233 283C456.813 282.496 456.756 282.339 456.831 282.238C457.204 281.723 456.905 281.235 457.319 281.375C458.221 281.678 458.181 282.109 457.957 282.215L457.951 282.21ZM406.471 252.626C406.132 252.469 406.178 251.82 406.666 252.313C406.701 252.526 406.666 252.722 406.471 252.626ZM418.166 258.654C418.516 258.805 418.643 258.531 418.815 258.76C418.884 258.856 418.683 259.007 418.631 258.968C418.338 258.744 417.999 259.13 417.948 258.884C417.919 258.766 418.011 258.581 418.172 258.654H418.166ZM450.736 255.461C450.995 255.551 451.012 255.719 450.937 255.887C450.782 256.228 450.351 255.724 450.736 255.461ZM386.176 286.775C386.521 286.742 386.739 287.028 386.556 287.14C386.084 287.436 385.677 286.82 386.176 286.775ZM408.74 276.485C408.74 276.485 408.757 276.401 408.774 276.322C408.849 276.362 408.906 276.378 408.941 276.418C408.964 276.446 408.924 276.625 408.74 276.485ZM407.223 276.63C407.821 276.474 407.625 277.448 407.206 277.028C407.062 276.883 407.034 276.681 407.223 276.63ZM421.176 267.83C421.469 267.964 421.291 268.11 421.216 268.127C421.015 268.172 420.918 267.931 421.176 267.83ZM410.383 276.042C410.492 276.322 410.101 276.462 410.032 276.199C409.963 275.941 410.297 275.818 410.383 276.042ZM423.899 262.771C424.088 262.592 424.295 263.292 423.968 263.208C423.79 263.164 423.727 262.939 423.899 262.771ZM387.98 278.115C388.526 278.541 389.215 279.695 388.514 279.616C388.101 279.571 387.297 279.275 387.417 278.91C387.544 278.507 387.704 277.902 387.98 278.115ZM394.327 260.363C394.5 260.082 395.017 260.11 395.017 260.559C395.017 261.483 393.983 260.917 394.327 260.363ZM425.823 273.998C425.444 273.964 425.312 273.488 425.95 273.309C426.535 273.146 426.432 274.048 425.823 273.998ZM387.814 295.94C388.083 295.688 388.33 296.024 388.451 296.159C389.02 297.374 387.245 296.461 387.814 295.94ZM365.51 384.464C365.924 384.29 365.912 385.253 365.355 384.945C365.263 384.783 365.344 384.536 365.51 384.464ZM401.588 290.982C401.916 290.876 402.226 291.414 401.858 291.582C401.496 291.744 401.284 291.083 401.588 290.982ZM443.906 279.924C443.981 279.919 444.061 279.947 444.182 279.969C444.13 280.076 444.113 280.165 444.061 280.199C443.86 280.333 443.728 279.941 443.906 279.924ZM414.111 278.871C414.065 278.955 414.047 279.022 414.007 279.062C413.823 279.23 413.663 278.854 413.898 278.826C413.956 278.821 414.019 278.849 414.116 278.871H414.111ZM419.321 275.997C419.372 275.981 419.441 275.992 419.556 275.986C419.349 276.434 419.148 276.059 419.321 275.997ZM416.73 273.577C416.684 273.633 416.65 273.684 416.604 273.706C416.581 273.717 416.495 273.656 416.495 273.633C416.54 273.415 416.621 273.505 416.73 273.572V273.577ZM419.12 250.851C418.896 250.436 419.51 250.122 419.746 250.52C419.953 250.867 419.321 251.226 419.12 250.851ZM414.633 302.136C414.49 301.777 415.294 301.676 415.012 302.164C414.978 302.225 414.714 302.332 414.633 302.136ZM406.764 267.858C406.77 267.522 406.77 267.197 406.833 267.012C407.074 266.289 407.959 266.603 407.901 267.023C407.832 267.578 407.367 267.421 407.516 267.768C407.614 267.998 407.729 268.183 407.413 268.3C407.034 268.44 406.752 268.244 406.764 267.858ZM433.469 258.368C433.808 258.682 433.394 258.71 433.394 258.52C433.394 258.48 433.429 258.441 433.469 258.368ZM442.838 255.08C443.033 255.237 443.039 255.158 442.924 255.371C442.711 255.259 442.752 255.321 442.838 255.08ZM414.949 284.277C415.013 283.991 415.495 283.857 415.719 284.159C416.11 284.68 414.875 284.619 414.949 284.277ZM414.266 272.513C414.168 272.804 414.013 272.838 413.869 272.72C413.576 272.479 414.392 272.127 414.266 272.513ZM454.493 249.949C454.705 250.055 454.682 249.965 454.751 250.279C454.757 250.313 454.464 250.358 454.43 250.156C454.424 250.1 454.464 250.038 454.493 249.954V249.949ZM442.711 243.792C443.148 243.579 443.406 243.983 443.188 244.078C442.82 244.235 442.505 243.887 442.711 243.792ZM459.18 268.592C459.266 269.247 458.623 269.214 458.623 268.788C458.623 268.569 458.99 268.183 459.18 268.592ZM470.272 249.837C470.129 250.352 470.002 250.341 470.129 250.531C470.192 250.627 469.772 251.119 469.813 249.909C469.824 249.579 470.215 249.809 470.272 249.837ZM438.633 262.301C438.633 262.228 438.667 262.155 438.696 262.049C439.225 262.312 438.644 262.508 438.633 262.301ZM436.484 263.186C436.456 263.236 436.439 263.309 436.398 263.337C436.318 263.393 436.203 263.354 436.197 263.276C436.192 263.225 436.232 263.169 436.266 263.079C436.358 263.124 436.421 263.158 436.49 263.186H436.484ZM440.862 261.421C441.109 261.287 441.195 261.735 440.936 261.819C440.735 261.886 440.643 261.545 440.862 261.421ZM467.302 261.741C467.073 261.36 466.613 261.393 466.768 261.052C466.895 260.777 467.256 260.9 467.251 261.102C467.245 261.505 467.503 261.405 467.498 261.606C467.498 261.769 467.314 261.763 467.302 261.741ZM412.181 275.051C412.324 275.269 411.957 275.493 411.819 275.213C411.704 274.989 412.043 274.843 412.181 275.051ZM445.222 257.444C445.089 257.517 445.095 257.097 445.336 257.057C445.388 257.046 445.785 257.13 445.222 257.444ZM446.451 254.447C446.491 254.055 446.939 254.139 446.922 254.492C446.899 254.878 446.399 254.929 446.451 254.447ZM435.669 260.138C435.347 260.211 435.416 259.562 435.634 259.724C435.812 259.853 435.789 260.11 435.669 260.138ZM429.12 249.036C428.621 249.416 428.127 246.89 429.166 248.615C429.27 248.783 429.293 248.907 429.12 249.036ZM411.888 256.234C411.801 256.1 412.043 255.875 412.232 255.92C412.68 256.015 412.083 256.542 411.888 256.234ZM428.804 268.222C428.5 267.651 429.597 267.623 429.563 268.401C429.545 268.777 429.063 268.709 428.804 268.222ZM442.447 254.447C442.286 254.576 442.039 254.318 442.246 254.172C442.413 254.049 442.734 254.217 442.447 254.447ZM435.077 261.466C434.934 261.438 434.911 261.22 435.129 261.203C435.341 261.444 435.106 261.472 435.077 261.466ZM399.394 268.939C399.606 269.348 399.032 269.55 398.831 269.141C398.67 268.816 399.216 268.597 399.394 268.939ZM415.857 244.627C415.564 244.425 415.771 243.837 416.087 243.983C416.506 244.173 416.179 244.845 415.857 244.627ZM434.307 278.653C434.129 278.726 433.957 278.401 434.29 278.266C434.537 278.44 434.434 278.597 434.307 278.653ZM431.975 238.958C431.665 238.442 432.584 237.826 432.573 238.274C432.555 238.75 432.194 239.322 431.975 238.958ZM410.021 263.158C409.825 263.399 409.711 263.231 409.705 263.135C409.699 262.973 409.952 262.923 410.021 263.158Z" fill="#A03137"/>
</svg>
